<?xml version="1.0" encoding="UTF-8" standalone="no"?>
<svg width="95px" height="113px" viewBox="0 0 95 113" version="1.1" xmlns="http://www.w3.org/2000/svg" xmlns:xlink="http://www.w3.org/1999/xlink">
    <!-- Generator: Sketch 40.3 (33839) - http://www.bohemiancoding.com/sketch -->
    <title>certificate</title>
    <desc>Created with Sketch.</desc>
    <defs></defs>
    <g id="KING-OF-CRAFTS" stroke="none" stroke-width="1" fill="none" fill-rule="evenodd">
        <g id="Desktop-HD-Copy-41" transform="translate(-388.000000, -695.000000)">
            <g id="Achievements" transform="translate(379.000000, 672.000000)">
                <g id="certificate" transform="translate(9.000000, 23.000000)">
                    <g id="main">
                        <path d="M6.21873553,8.10996069 L6.21873553,96.9620701 C6.21873553,96.9620701 7.05927471,102.773315 11.0733933,102.773315 C15.0875118,102.773315 88.4209137,104.068317 89.8181334,103.177869 C90.8923796,102.773315 94.1181374,101.623507 94.7397027,96.2262961 C92.5141295,95.5840685 81.6770723,96.2262961 81.6770723,96.2262961 L81.5884248,6.50861112 C81.5884248,6.50861112 80.5109504,0.229952713 74.6795588,0.229952713 C68.8481671,0.229952713 67.7652663,8.10996069 67.7652663,8.10996069" id="Path-9" fill="#F9F6C5"></path>
                        <path d="M81.7644284,95.9683232 C81.7644284,95.9683232 82.413808,103.39155 88.2164408,103.39155 C94.0190736,103.39155 95.3292468,95.9683232 94.2947452,95.9683232 L81.7644284,95.9683232 Z" id="Path-10" fill-opacity="0.384454257" fill="#4990E2"></path>
                        <path d="M67.7254261,8.286339 C67.7254261,8.286339 69.279674,1.38384696 72.6511053,0.612221777 C76.0225365,-0.159403411 5.71583466,1.01261905 5.71583466,1.01261905 C5.71583466,1.01261905 3.18717121e-14,2.55377407 2.84217094e-14,8.286339 C6.84877996,8.33010394 67.7254261,8.286339 67.7254261,8.286339 Z" id="Path-11" fill-opacity="0.321388134" fill="#4990E2"></path>
                    </g>
                    <g id="sub" transform="translate(14.000000, 20.000000)">
                        <rect id="Rectangle-4" fill="#F9C36A" x="8" y="0" width="44" height="8"></rect>
                        <rect id="Rectangle-5" fill="#9B9B9B" x="1" y="12" width="59" height="4"></rect>
                        <rect id="Rectangle-5-Copy" fill="#9B9B9B" x="0" y="42" width="59" height="4"></rect>
                        <rect id="Rectangle-5-Copy-4" fill="#9B9B9B" x="0" y="52" width="39" height="4"></rect>
                        <rect id="Rectangle-5-Copy-2" fill="#9B9B9B" x="0" y="31" width="59" height="4"></rect>
                        <rect id="Rectangle-5-Copy-3" fill="#9B9B9B" x="0" y="22" width="59" height="4"></rect>
                    </g>
                    <g id="badge" transform="translate(46.000000, 79.000000)">
                        <g id="down" transform="translate(0.000000, 13.000000)" fill-opacity="0.775588768" fill="#D0011B">
                            <path d="M24.4940397,2.03435348 L33.2377963,15.9300416 L26.0363713,14.7583912 L23.9012601,20.8688957 L16.6882654,8.2938885 C16.6882654,8.2938885 16.5589922,7.83487468 19.305806,7.57645597 C19.613518,7.11142463 21.5424544,6.82093596 21.8585024,5.29534834 C24.1870181,4.44664317 24.4940397,2.03435348 24.4940397,2.03435348 Z" id="Path-5-Copy-3" transform="translate(24.962552, 11.451625) rotate(3.000000) translate(-24.962552, -11.451625) "></path>
                            <path d="M8.23823071,0.418876903 L16.9819873,14.314565 L9.78056231,13.1429146 L7.64545111,19.2534191 L0.484657224,7.05058648 C0.484657224,7.05058648 0.287613756,6.40212537 3.03442757,6.14370665 C3.34213954,5.67867531 5.28664549,5.20545938 5.60269341,3.67987176 C7.93120918,2.83116659 8.23823071,0.418876903 8.23823071,0.418876903 Z" id="Path-5-Copy-4" transform="translate(8.731771, 9.836148) scale(-1, 1) rotate(3.000000) translate(-8.731771, -9.836148) "></path>
                        </g>
                        <g id="circle" transform="translate(6.000000, 0.000000)">
                            <circle id="Oval-4-Copy" fill="#DD541A" cx="10.5" cy="10.5" r="10.5"></circle>
                            <circle id="Oval-4" stroke="#F6A623" fill="" cx="10.5" cy="10.5" r="6.5"></circle>
                        </g>
                    </g>
                </g>
            </g>
        </g>
    </g>
</svg>