<?xml version="1.0" encoding="UTF-8" standalone="no"?>
<svg width="43px" height="62px" viewBox="0 0 43 62" version="1.1" xmlns="http://www.w3.org/2000/svg" xmlns:xlink="http://www.w3.org/1999/xlink">
    <!-- Generator: Sketch 40.3 (33839) - http://www.bohemiancoding.com/sketch -->
    <title>reward 2</title>
    <desc>Created with Sketch.</desc>
    <defs></defs>
    <g id="KING-OF-CRAFTS" stroke="none" stroke-width="1" fill="none" fill-rule="evenodd">
        <g id="Desktop-HD-Copy-41" transform="translate(-859.000000, -722.000000)">
            <g id="Achievements" transform="translate(379.000000, 672.000000)">
                <g id="reward-2" transform="translate(482.000000, 50.000000)">
                    <g id="top" transform="translate(8.000000, 0.510471)">
                        <rect id="Rectangle" fill="#9A4141" x="0" y="0" width="5" height="10.2434555"></rect>
                        <rect id="Rectangle-Copy" fill-opacity="0.966060915" fill="#90212E" x="16" y="0" width="5" height="10.2434555"></rect>
                        <rect id="Rectangle-Copy-2" fill="#D0011B" x="12" y="0" width="5" height="10.2434555"></rect>
                        <rect id="Rectangle-Copy-3" fill="#9B3434" x="8" y="0" width="5" height="10.2434555"></rect>
                        <rect id="Rectangle-Copy-4" fill="#D0011B" x="4" y="0" width="5" height="10.2434555"></rect>
                        <rect id="Rectangle-2" fill="#D8D8D8" opacity="0.316231343" x="0" y="7.87958115" width="21" height="2.36387435"></rect>
                    </g>
                    <path d="M18.5,22.5719895 C22.0898509,22.5719895 25,19.6618404 25,16.0719895 C25,12.4821387 22.0898509,9.57198953 18.5,9.57198953 C14.9101491,9.57198953 12,12.4821387 12,16.0719895 C12,19.6618404 14.9101491,22.5719895 18.5,22.5719895 Z M18.5,19.5719895 C20.4329966,19.5719895 22,18.0049862 22,16.0719895 C22,14.1389929 20.4329966,12.5719895 18.5,12.5719895 C16.5670034,12.5719895 15,14.1389929 15,16.0719895 C15,18.0049862 16.5670034,19.5719895 18.5,19.5719895 Z" id="Combined-Shape" fill="#F6A623"></path>
                    <g id="star" transform="translate(0.000000, 23.000000)">
                        <polygon id="Star" fill="" points="18.5128205 26.4775129 10.68439 31.1740446 12.4328203 21.7430843 5.84615385 15.2147403 14.7551737 14.082618 18.5128205 5.48898276 22.2704673 14.082618 31.1794872 15.2147403 24.5928208 21.7430843 26.341251 31.1740446"></polygon>
                        <path d="M18.43,0 C16.8958605,0 12.236,10.4703857 12.236,10.4703857 C12.236,10.4703857 1.47581459e-16,11.7702067 0,13.5160098 C0,15.261813 8.0135814,22.3930953 8.0135814,23.6858231 C8.0135814,24.9785509 5.04604651,35.7078368 6.52981395,35.7078368 C8.63837209,37.3100036 16.758,30.8969034 18.43,32.0318084 C20.3123256,32.0947602 27.9167442,37.2594648 29.9811163,36.4676912 C32.0454884,34.64209 29.0205116,24.5157224 30.0818605,23.4499756 C31.1432093,22.3842288 37.271814,16.5838001 38,14.2217789 C37.0826977,12.5548871 26.7528837,11.4731808 25.8391163,10.1015416 C24.9253488,8.72990245 19.9641395,0 18.43,0 Z" id="Path-4-Copy" stroke="#F6A623" stroke-width="4"></path>
                    </g>
                </g>
            </g>
        </g>
    </g>
</svg>