<?xml version="1.0" encoding="UTF-8" standalone="no"?>
<svg width="47px" height="58px" viewBox="0 0 47 58" version="1.1" xmlns="http://www.w3.org/2000/svg" xmlns:xlink="http://www.w3.org/1999/xlink">
    <!-- Generator: Sketch 40.3 (33839) - http://www.bohemiancoding.com/sketch -->
    <title>reward1</title>
    <desc>Created with Sketch.</desc>
    <defs></defs>
    <g id="KING-OF-CRAFTS" stroke="none" stroke-width="1" fill="none" fill-rule="evenodd">
        <g id="Desktop-HD-Copy-41" transform="translate(-587.000000, -723.000000)">
            <g id="Achievements" transform="translate(379.000000, 672.000000)">
                <g id="reward1" transform="translate(208.000000, 51.000000)">
                    <path d="M15.8821882,0.271638729 C17.1947361,-0.653915654 21.8355528,2.71472959 22.9263404,2.71472959 C24.0171279,2.71472959 29.1965054,-0.24021148 29.8394241,0.0157136242 C30.4823427,0.271638729 33.8081267,7.09899995 34.4709231,6.33246699 C35.3921931,6.64957768 41.9039323,8.52086795 41.9039323,9.31597507 C41.9039323,10.1110822 40.6820763,15.5544672 41.587753,15.5544672 C42.5112414,16.9950742 46.124833,20.5810351 46.124833,22.1979599 C46.124833,23.8148848 41.8902664,26.7089505 41.8902664,27.7730274 C41.8902664,28.8371044 42.5710768,35.8520612 41.9039323,35.8520612 C41.2375844,36.8202492 34.637848,37.7339693 34.5467067,38.235519 C34.4709231,39.271643 31.77874,44.3317544 30.2723847,44.3317544 C28.7660295,44.3317544 24.4656181,41.4159475 23.0145476,42.2178876 C21.5634771,43.0198277 18.0159327,44.88336 16.4126737,44.6075572 C14.8094148,44.3317544 11.9526197,37.696337 11.0475642,37.965928 C10.1518498,37.8132091 7.55260476,37.565193 4.52333758,35.8259718 C3.06503467,35.8841449 4.79085098,28.970583 4.39723856,28.1084633 C3.41243634,27.5666504 -0.627779419,22.9045293 0.0834687476,21.7230498 C1.38171114,19.5151066 4.34195377,17.8242496 4.34195377,15.9600961 C4.34195377,14.0959426 2.62998875,9.3911447 4.05931804,8.78611787 C5.48431128,7.66671248 10.8632174,7.85160538 11.445739,6.38340354 C12.2671499,5.24877891 14.9366811,0.692713388 15.8821882,0.271638729 Z" id="Path-3-Copy" fill="#4990E2"></path>
                    <g id="circle" transform="translate(5.000000, 4.000000)">
                        <circle id="Oval-3" fill="#FFFFFF" cx="18" cy="18" r="18"></circle>
                        <circle id="Oval-3-Copy" fill="#EC6D36" cx="18" cy="18" r="14"></circle>
                        <circle id="Oval-3-Copy-2" fill="" cx="18" cy="18" r="10"></circle>
                    </g>
                    <path d="M25.8941568,42.0797877 L31.7973399,53.6654368 L24.3862458,52.7169008 L21.009165,59.1622864 L15.3205911,47.9978316 C15.3205911,47.9978316 16.3933986,46.8543794 17.6090298,45.5960643 C17.9167417,45.131033 19.3377182,43.1076257 19.6774504,42.9487579 C22.0059662,42.1000527 25.8941568,42.0797877 25.8941568,42.0797877 Z" id="Path-5-Copy-2" fill-opacity="0.775588768" fill="#D0011B" transform="translate(23.558965, 50.621037) rotate(27.000000) translate(-23.558965, -50.621037) "></path>
                </g>
            </g>
        </g>
    </g>
</svg>