<?xml version="1.0" encoding="UTF-8" standalone="no"?>
<svg width="47px" height="61px" viewBox="0 0 47 61" version="1.1" xmlns="http://www.w3.org/2000/svg" xmlns:xlink="http://www.w3.org/1999/xlink">
    <!-- Generator: Sketch 40.3 (33839) - http://www.bohemiancoding.com/sketch -->
    <title>reward3</title>
    <desc>Created with Sketch.</desc>
    <defs>
        <path d="M23.305089,13.9980986 C22.527912,13.9980986 20.1672818,19.2847821 20.1672818,19.2847821 C20.1672818,19.2847821 13.968669,19.9410847 13.968669,20.8225717 C13.968669,21.7040587 18.0282545,25.3047696 18.0282545,25.9574908 C18.0282545,26.610212 16.5249364,32.0276188 17.2765955,32.0276188 C18.3447661,32.8365812 22.4580735,29.5984931 23.305089,30.1715268 C24.2586528,30.2033123 28.1109614,32.8110633 29.1567479,32.4112827 C30.2025343,31.4895043 28.6701169,26.3765217 29.2077837,25.8384072 C29.7454504,25.3002928 32.8501291,22.3715534 33.2190195,21.178927 C32.754325,20.3372838 27.5213634,19.7911111 27.0584596,19.0985461 C26.5955559,18.4059812 24.0822659,13.9980986 23.305089,13.9980986 Z" id="path-1"></path>
        <filter x="-50%" y="-50%" width="200%" height="200%" filterUnits="objectBoundingBox" id="filter-2">
            <feMorphology radius="0.5" operator="dilate" in="SourceAlpha" result="shadowSpreadOuter1"></feMorphology>
            <feOffset dx="0" dy="1" in="shadowSpreadOuter1" result="shadowOffsetOuter1"></feOffset>
            <feGaussianBlur stdDeviation="0.5" in="shadowOffsetOuter1" result="shadowBlurOuter1"></feGaussianBlur>
            <feComposite in="shadowBlurOuter1" in2="SourceAlpha" operator="out" result="shadowBlurOuter1"></feComposite>
            <feColorMatrix values="0 0 0 0 0   0 0 0 0 0   0 0 0 0 0  0 0 0 0.5 0" type="matrix" in="shadowBlurOuter1"></feColorMatrix>
        </filter>
    </defs>
    <g id="KING-OF-CRAFTS" stroke="none" stroke-width="1" fill="none" fill-rule="evenodd">
        <g id="Desktop-HD-Copy-41" transform="translate(-724.000000, -722.000000)">
            <g id="Achievements" transform="translate(379.000000, 672.000000)">
                <g id="reward3" transform="translate(345.000000, 50.000000)">
                    <g id="star">
                        <path d="M16.4846465,1.1587571 C17.7971945,0.233202714 22.4380111,3.60184796 23.5287987,3.60184796 C24.6195863,3.60184796 29.7989638,0.646906888 30.4418824,0.902831993 C31.084801,1.1587571 34.4105851,7.98611832 35.0733814,7.21958536 C35.9946514,7.53669604 42.5063906,9.40798631 42.5063906,10.2030934 C42.5063906,10.9982006 41.2845346,16.4415856 42.1902113,16.4415856 C43.1136997,17.8821926 46.7272913,21.4681534 46.7272913,23.0850783 C46.7272913,24.7020032 42.4927247,27.5960689 42.4927247,28.6601458 C42.4927247,29.7242228 43.1735352,36.7391796 42.5063906,36.7391796 C41.8400428,37.7073675 35.2403063,38.6210877 35.149165,39.1226374 C35.0733814,40.1587614 32.3811984,45.2188728 30.8748431,45.2188728 C29.3684878,45.2188728 25.0680764,42.3030659 23.6170059,43.105006 C22.1659354,43.906946 18.618391,45.7704783 17.0151321,45.4946756 C15.4118731,45.2188728 12.5550781,38.5834554 11.6500225,38.8530464 C10.7543081,38.7003275 8.15506309,38.4523113 5.12579591,36.7130901 C3.667493,36.7712633 5.39330931,29.8577013 4.99969689,28.9955816 C4.01489467,28.4537688 -0.0253210902,23.7916477 0.685927076,22.6101682 C1.98416946,20.4022249 4.9444121,18.711368 4.9444121,16.8472145 C4.9444121,14.983061 3.23244708,10.2782631 4.66177636,9.67323624 C6.08676961,8.55383084 11.4656757,8.73872375 12.0481973,7.27052191 C12.8696082,6.13589728 15.5391394,1.57983176 16.4846465,1.1587571 Z" id="Path-3" fill-opacity="0.704455389" fill="#F6A623"></path>
                        <circle id="Oval" stroke="#F6A623" stroke-width="2" fill="#F4B754" cx="23.5" cy="23.5" r="15.5"></circle>
                        <g id="Path-4">
                            <use fill="black" fill-opacity="1" filter="url(#filter-2)" xlink:href="#path-1"></use>
                            <use stroke="#F6A623" stroke-width="1" fill="" fill-rule="evenodd" xlink:href="#path-1"></use>
                        </g>
                    </g>
                    <path d="M35.1832035,39.1982333 L42.8133047,54.9825426 L34.6328011,53.4541543 L30.7710912,60.5633535 L21.8689513,43.9384933 C21.8689513,43.9384933 22.5998124,43.67593 23.913313,42.8289145 C25.9313965,42.9963379 29.7848973,44.7450888 30.7710912,45.2365112 C32.645752,44.7072097 35.1832035,39.1982333 35.1832035,39.1982333 Z" id="Path-5" fill="#D0011B"></path>
                    <path d="M14.87585,39.0040467 L23.0563536,54.9825426 L14.87585,53.4541543 L11.0141402,60.5633535 L4.01047288,45.4281012 C4.01047288,45.4281012 3.81359272,44.8186341 5.12709338,43.9716187 C6.9835387,44.8818359 9.37983996,45.8283081 10.4009581,45.328064 C10.8134337,45.2039795 14.87585,39.0040467 14.87585,39.0040467 Z" id="Path-5-Copy" fill-opacity="0.610365716" fill="#D0011B" transform="translate(13.528177, 49.783700) scale(-1, 1) translate(-13.528177, -49.783700) "></path>
                </g>
            </g>
        </g>
    </g>
</svg>