<?xml version="1.0" encoding="UTF-8" standalone="no"?>
<svg width="59px" height="57px" viewBox="0 0 59 57" version="1.1" xmlns="http://www.w3.org/2000/svg" xmlns:xlink="http://www.w3.org/1999/xlink">
    <!-- Generator: Sketch 40.3 (33839) - http://www.bohemiancoding.com/sketch -->
    <title>reward 4</title>
    <desc>Created with Sketch.</desc>
    <defs>
        <path d="M29.33642,8 C28.5592431,8 26.1986129,12.7663776 26.1986129,12.7663776 C26.1986129,12.7663776 20,13.3580881 20,14.1528207 C20,14.9475533 24.0595856,18.1938887 24.0595856,18.7823702 C24.0595856,19.3708518 22.5562675,24.2550871 23.3079265,24.2550871 C24.3760971,24.9844329 28.4894046,22.0650316 29.33642,22.5816684 C30.2899839,22.6103256 34.1422924,24.9614264 35.1880789,24.6009915 C36.2338654,23.7699329 34.7014479,19.1601608 35.2391147,18.6750067 C35.7767815,18.1898525 38.8814601,15.5493544 39.2503505,14.4741042 C38.785656,13.7152939 33.5526945,13.2228746 33.0897907,12.5984706 C32.6268869,11.9740667 30.113597,8 29.33642,8 Z" id="path-1"></path>
        <filter x="-50%" y="-50%" width="200%" height="200%" filterUnits="objectBoundingBox" id="filter-2">
            <feMorphology radius="0.5" operator="dilate" in="SourceAlpha" result="shadowSpreadOuter1"></feMorphology>
            <feOffset dx="0" dy="1" in="shadowSpreadOuter1" result="shadowOffsetOuter1"></feOffset>
            <feGaussianBlur stdDeviation="0.5" in="shadowOffsetOuter1" result="shadowBlurOuter1"></feGaussianBlur>
            <feComposite in="shadowBlurOuter1" in2="SourceAlpha" operator="out" result="shadowBlurOuter1"></feComposite>
            <feColorMatrix values="0 0 0 0 0   0 0 0 0 0   0 0 0 0 0  0 0 0 0.5 0" type="matrix" in="shadowBlurOuter1"></feColorMatrix>
        </filter>
    </defs>
    <g id="KING-OF-CRAFTS" stroke="none" stroke-width="1" fill="none" fill-rule="evenodd">
        <g id="Desktop-HD-Copy-41" transform="translate(-989.000000, -722.000000)">
            <g id="Achievements" transform="translate(379.000000, 672.000000)">
                <g id="reward-4" transform="translate(610.000000, 50.000000)">
                    <g id="top">
                        <path d="M11.3065947,1.14282011 L48.3300205,0.961488727 L47.9817681,5.91868052 C47.9817681,5.91868052 49.5901133,3.53319578 53.4091006,3.42927679 C56.4135048,3.22279637 61.180897,7.22815481 57.4416224,14.46107 C52.5284341,21.3608494 43.0482395,22.9988569 47.1789865,28.6181277 C47.7645332,31.0724154 44.4872486,31.1209748 43.8609824,26.5766485 C43.6310157,25.0485413 38.0493715,37.4505273 30.4640755,40.3284125 C27.8918117,40.9564676 19.0211866,35.375059 15.6759034,26.5766485 C14.8311122,26.072033 15.495571,30.2492424 13.221498,30.7581802 C10.0264337,30.5519178 13.8704586,26.3703296 12.3985698,24.780105 C10.4311795,21.8764011 -2.02023656,15.2611517 0.830804284,7.56327213 C3.38879004,0.96893157 9.3430567,4.23023563 11.2537564,5.72714174 C11.3547639,6.09201947 11.3065947,1.14282011 11.3065947,1.14282011 Z M47.8126411,8.35273309 C48.1837945,8.30249223 45.9176884,21.4509858 45.5047747,21.709652 C45.1378813,21.8112142 56.8737085,16.0215352 56.6858703,8.67936975 C55.2382214,4.1340764 50.0709468,5.69202685 49.7982798,7.44143538 C49.718653,9.12070254 51.1554404,8.68969804 51.3738214,10.2483065 C51.3738214,11.1705748 50.6092263,11.5864418 49.7982798,11.2624414 C48.9229768,10.8923278 47.743586,8.62400001 47.8126411,8.35273309 Z M11.4377094,8.65435704 C11.066556,8.60411619 13.3326621,21.7526098 13.7455759,22.011276 C14.1124692,22.1128381 2.37664208,16.3231592 2.56448021,8.98099371 C4.01212912,4.43570036 9.17940379,5.99365081 9.4520707,7.74305934 C9.53169759,9.4223265 8.09491014,8.991322 7.87652912,10.5499305 C7.87652912,11.4721987 8.64112424,11.8880658 9.4520707,11.5640653 C10.3273738,11.1939518 11.5067646,8.92562396 11.4377094,8.65435704 Z" id="Combined-Shape" fill-opacity="0.788015172" fill="#F6A623"></path>
                        <g id="Path-4-Copy-2">
                            <use fill="black" fill-opacity="1" filter="url(#filter-2)" xlink:href="#path-1"></use>
                            <use stroke-opacity="0.518200861" stroke="#F6A623" stroke-width="1" fill="" fill-rule="evenodd" xlink:href="#path-1"></use>
                        </g>
                    </g>
                    <g id="down" transform="translate(18.000000, 38.000000)">
                        <polygon id="Rectangle-3" fill="#D0011B" points="0.272634897 15 23 15.2379569 23.224402 18 0.055259188 18"></polygon>
                        <path d="M7.97067566,0.854039202 C8.83877117,3.79786702 6.90309585,8.88538089 6.36483559,9.68426652 C5.69655137,9.68426652 16.9347085,9.68426652 16.9347085,9.68426652 C16.9347085,9.68426652 14.0976098,2.5514691 15.2912747,0.854039202 C15.5811281,0.442206596 11.9863619,2.42114426 11.9863619,2.42114426 C11.9863619,2.42114426 8.98345376,1.53044247 7.97067566,0.854039202 Z" id="Path-7" fill-opacity="0.795969203" fill="#F6A623"></path>
                        <path d="M0.0921846543,17.9007676 C0.0921846543,17.9007676 -0.647024363,9.46458315 6.15530435,9.46458315 C12.9576331,9.46458315 18.3909699,9.68494281 18.3909699,9.68494281 C18.3909699,9.68494281 23.2322549,10.6673265 23.2322549,17.9007676 C23.0551266,18.6140844 0.0921846543,17.9007676 0.0921846543,17.9007676 Z" id="Path-8" fill-opacity="0.584324049" fill="#F6A623"></path>
                    </g>
                </g>
            </g>
        </g>
    </g>
</svg>