<?xml version="1.0" encoding="UTF-8" standalone="no"?>
<svg width="214px" height="120px" viewBox="0 0 214 120" version="1.1" xmlns="http://www.w3.org/2000/svg" xmlns:xlink="http://www.w3.org/1999/xlink">
    <!-- Generator: Sketch 40.3 (33839) - http://www.bohemiancoding.com/sketch -->
    <title>search talent</title>
    <desc>Created with Sketch.</desc>
    <defs>
        <circle id="path-1" cx="38.5342466" cy="38.5342466" r="38.5342466"></circle>
        <mask id="mask-2" maskContentUnits="userSpaceOnUse" maskUnits="objectBoundingBox" x="0" y="0" width="77.0684932" height="77.0684932" fill="white">
            <use xlink:href="#path-1"></use>
        </mask>
    </defs>
    <g id="KING-OF-CRAFTS" stroke="none" stroke-width="1" fill="none" fill-rule="evenodd">
        <g id="Desktop-HD" transform="translate(-577.000000, -1371.000000)">
            <g id="how-does" transform="translate(66.000000, 1112.000000)">
                <g id="search-talent" transform="translate(509.000000, 247.000000)">
                    <g id="放大镜" transform="translate(0.000000, 15.000000)">
                        <g id="手柄" transform="translate(0.000000, 48.465753)">
                            <rect id="Rectangle-103" fill="#F6A623" transform="translate(23.041096, 44.493151) rotate(-45.000000) translate(-23.041096, -44.493151) " x="-2.38356164" y="37.3424658" width="50.8493151" height="14.3013699" rx="7.15068493"></rect>
                            <rect id="Rectangle-104" fill="#BDC3C7" transform="translate(50.452055, 17.082192) rotate(-45.000000) translate(-50.452055, -17.082192) " x="30.1917808" y="13.5068493" width="40.5205479" height="7.15068493" rx="3.57534247"></rect>
                        </g>
                        <g id="镜面" transform="translate(38.931507, 0.000000)">
                            <use id="Oval-45" stroke="#4990E2" mask="url(#mask-2)" stroke-width="16" fill="#ECF0F1" xlink:href="#path-1"></use>
                            <path d="M59.9863014,28.2054795 C59.9863014,28.2054795 63.5616438,30.9863014 64.3561644,34.9589041 C65.1506849,38.9315068 63.5616438,43.3013699 63.5616438,43.3013699" id="Path-15" stroke="#FFFFFF" stroke-width="4" stroke-linecap="round"></path>
                            <ellipse id="Oval-47" fill="#FFFFFF" cx="48.4657534" cy="17.4794521" rx="3.17808219" ry="3.17808219"></ellipse>
                        </g>
                    </g>
                    <g id="VR-Player" transform="translate(65.000000, 0.000000)">
                        <path d="M15.9007616,112.190187 L10.9338411,112.190187" id="Stroke-4" stroke="#504B46" stroke-linecap="round"></path>
                        <path d="M150.007616,112.190187 L145.040696,112.190187" id="Stroke-6" stroke="#504B46" stroke-linecap="round"></path>
                        <path d="M20.8676822,112.190187 L140.073775,112.190187" id="Stroke-8" stroke="#504B46" stroke-linecap="round"></path>
                        <path d="M44.4605548,128.665204 C44.4605548,130.064313 40.0126774,131.199821 34.5267137,131.199821 C29.0407499,131.199821 24.5928726,130.064313 24.5928726,128.665204 C24.5928726,127.266094 29.0407499,126.130586 34.5267137,126.130586 C40.0126774,126.130586 44.4605548,127.266094 44.4605548,128.665204 L44.4605548,128.665204 Z" id="Fill-13" fill="#E4EDF1"></path>
                        <path d="M133.865125,128.665204 C133.865125,130.064313 129.417247,131.199821 123.931283,131.199821 C118.44532,131.199821 113.997442,130.064313 113.997442,128.665204 C113.997442,127.266094 118.44532,126.130586 123.931283,126.130586 C129.417247,126.130586 133.865125,127.266094 133.865125,128.665204" id="Fill-15" fill="#E4EDF1"></path>
                        <path d="M60.6030465,94.4478607 L60.6030465,112.190187 L100.338411,112.190187 L100.338411,94.4478607 L112.755712,94.4478607 L112.755712,93.1805518 C112.755712,79.1818566 101.637261,67.8343719 87.9211095,67.8343719 L73.0203479,67.8343719 C59.3041968,67.8343719 48.1857452,79.1818566 48.1857452,93.1805518 L48.1857452,94.4478607 L60.6030465,94.4478607 Z" id="Fill-17" fill="#00A4CA"></path>
                        <path d="M112.755712,93.1805518 C112.755712,79.1818566 101.637261,67.8343719 87.9211095,67.8343719 L73.0203479,67.8343719 C59.3041968,67.8343719 48.1857452,79.1818566 48.1857452,93.1805518 L48.1857452,95.7151697 C48.1857452,81.7164746 59.3041968,77.9728439 73.0203479,77.9728439 L87.9211095,77.9728439 C101.637261,77.9728439 112.755712,81.7164746 112.755712,95.7151697 L112.755712,93.1805518 Z" id="Fill-19" fill="#45B7D4"></path>
                        <path d="M80.4707287,95.7151697 C80.4707287,95.7151697 92.8880301,77.3670702 92.8880301,70.3689899 L92.8880301,68.3438301 C91.2837147,68.0117952 89.6222798,67.8343719 87.9211095,67.8343719 L73.0203479,67.8343719 C71.3191776,67.8343719 69.6577427,68.0117952 68.0534274,68.3438301 L68.0534274,70.3689899 C68.0534274,77.3670702 80.4707287,95.7151697 80.4707287,95.7151697" id="Fill-21" fill="#C5F6F4"></path>
                        <path d="M92.8880301,69.1016809 L92.8880301,70.3689899 C92.8880301,77.3670702 80.4707287,95.7151697 80.4707287,95.7151697 C80.4707287,95.7151697 68.0534274,77.3670702 68.0534274,70.3689899 L68.0534274,69.1016809" id="Stroke-23" stroke="#504B46" stroke-linecap="round" stroke-linejoin="round"></path>
                        <path d="M100.338411,94.4478607 L100.338411,94.4478607 L112.755712,94.4478607 L112.755712,93.1805518 C112.755712,79.1818566 101.637261,67.8343719 87.9211095,67.8343719 L73.0203479,67.8343719 C59.3041968,67.8343719 48.1857452,79.1818566 48.1857452,93.1805518 L48.1857452,94.4478607 L60.6030465,94.4478607" id="Stroke-25" stroke="#504B46" stroke-linecap="round" stroke-linejoin="round"></path>
                        <path d="M87.9211095,70.1015877 C87.9211095,74.2938459 80.4707287,86.8452741 80.4707287,86.8452741 C80.4707287,86.8452741 73.0203479,74.2887766 73.0203479,70.1015877 L73.0203479,58.9644763 L87.9211095,58.9644763 L87.9211095,70.1015877 Z" id="Fill-27" fill="#9F725F"></path>
                        <path d="M100.338411,88.1113158 L100.338411,86.8440068" id="Stroke-29" stroke="#504B46" stroke-linecap="round" stroke-linejoin="round"></path>
                        <polyline id="Stroke-31" stroke="#504B46" stroke-linecap="round" stroke-linejoin="round" points="60.6030465 91.9132428 60.6030465 112.190187 100.338411 112.190187 100.338411 91.9132428"></polyline>
                        <path d="M60.6030465,96.9824787 L60.6030465,94.4478607" id="Fill-33" fill="#EDF2F4"></path>
                        <path d="M60.6030465,96.9824787 L60.6030465,94.4478607" id="Stroke-35" stroke="#504B46" stroke-linecap="round" stroke-linejoin="round"></path>
                        <path d="M73.0203479,67.5626609 C73.2090909,67.6488379 73.3854166,67.7451534 73.5840934,67.8237265 C77.7538232,69.5269898 83.1876343,69.5269898 87.3573641,67.8237265 C87.5560409,67.7451534 87.7323666,67.6488379 87.9211095,67.5626609 L87.9211095,58.9627021 L73.0203479,58.9627021 L73.0203479,67.5626609 Z" id="Fill-37" fill="#B28863"></path>
                        <path d="M87.9211095,70.1015877 C87.9211095,74.2938459 80.4707287,86.8452741 80.4707287,86.8452741 C80.4707287,86.8452741 73.0203479,74.2887766 73.0203479,70.1015877 L73.0203479,58.9644763 L87.9211095,58.9644763 L87.9211095,70.1015877 L87.9211095,70.1015877 Z" id="Stroke-39" stroke="#504B46" stroke-linecap="round" stroke-linejoin="round"></path>
                        <path d="M60.6030465,88.1113158 L60.6030465,86.8440068" id="Stroke-41" stroke="#504B46" stroke-linecap="round" stroke-linejoin="round"></path>
                        <path d="M115.828498,119.37811 C112.157943,119.37811 109.053618,118.465647 106.602443,116.660999 C101.051909,112.57773 100.339156,105.354068 100.339156,99.5168432 L100.339156,94.4476073 L110.272997,94.4476073 L110.272997,99.5168432 C110.272997,104.390914 110.993201,107.391901 112.408773,108.438699 C112.917882,108.811287 113.926167,109.25738 115.855816,109.25738 C118.160467,109.25738 121.185321,108.62626 124.843458,107.381763 L126.020619,106.978759 L129.164679,116.597634 L127.987519,117.000638 C123.278878,118.599982 119.302859,119.37811 115.828498,119.37811" id="Fill-43" fill="#9F725F"></path>
                        <path d="M115.828498,119.37811 C112.157943,119.37811 109.053618,118.465647 106.602443,116.660999 C101.051909,112.57773 100.339156,105.354068 100.339156,99.5168432 L100.339156,94.4476073 L110.272997,94.4476073 L110.272997,99.5168432 C110.272997,104.390914 110.993201,107.391901 112.408773,108.438699 C112.917882,108.811287 113.926167,109.25738 115.855816,109.25738 C118.160467,109.25738 121.185321,108.62626 124.843458,107.381763 L126.020619,106.978759 L129.164679,116.597634 L127.987519,117.000638 C123.278878,118.599982 119.302859,119.37811 115.828498,119.37811 L115.828498,119.37811 Z" id="Stroke-45" stroke="#4F4A45"></path>
                        <path d="M45.1129598,119.37811 C41.6385989,119.37811 37.662579,118.599982 32.9539383,117.000638 L31.7767781,116.597634 L34.9208388,106.978759 L36.097999,107.381763 C39.7586194,108.62626 42.783474,109.25738 45.0881252,109.25738 C47.0152904,109.25738 48.0235752,108.811287 48.5302011,108.438699 C49.9482569,107.391901 50.6684604,104.390914 50.6684604,99.5168432 L50.6684604,94.4476073 L60.6023015,94.4476073 L60.6023015,99.5168432 C60.6023015,105.354068 59.8895484,112.57773 54.3390147,116.660999 C51.8903229,118.465647 48.7859975,119.37811 45.1129598,119.37811" id="Fill-47" fill="#9F725F"></path>
                        <path d="M45.1129598,119.37811 C41.6385989,119.37811 37.662579,118.599982 32.9539383,117.000638 L31.7767781,116.597634 L34.9208388,106.978759 L36.097999,107.381763 C39.7586194,108.62626 42.783474,109.25738 45.0881252,109.25738 C47.0152904,109.25738 48.0235752,108.811287 48.5302011,108.438699 C49.9482569,107.391901 50.6684604,104.390914 50.6684604,99.5168432 L50.6684604,94.4476073 L60.6023015,94.4476073 L60.6023015,99.5168432 C60.6023015,105.354068 59.8895484,112.57773 54.3390147,116.660999 C51.8903229,118.465647 48.7859975,119.37811 45.1129598,119.37811 L45.1129598,119.37811 Z" id="Stroke-49" stroke="#4F4A45"></path>
                        <path d="M130.850701,117.923239 C130.26212,118.873721 129.132146,119.314744 128.074192,119.008056 L122.550976,117.406177 C119.384564,116.488645 117.546804,113.122673 118.445816,109.891035 L119.260391,106.966085 C120.159404,103.734448 123.457439,101.85883 126.623851,102.778897 L132.147067,104.380775 C133.207504,104.687464 133.940125,105.670896 133.950059,106.793731 C133.987311,110.729993 132.909489,114.595286 130.850701,117.923239" id="Fill-57" fill="#9F725F"></path>
                        <path d="M130.850701,117.923239 C130.26212,118.873721 129.132146,119.314744 128.074192,119.008056 L122.550976,117.406177 C119.384564,116.488645 117.546804,113.122673 118.445816,109.891035 L119.260391,106.966085 C120.159404,103.734448 123.457439,101.85883 126.623851,102.778897 L132.147067,104.380775 C133.207504,104.687464 133.940125,105.670896 133.950059,106.793731 C133.987311,110.729993 132.909489,114.595286 130.850701,117.923239 L130.850701,117.923239 Z" id="Stroke-59" stroke="#504B46" stroke-linecap="round" stroke-linejoin="round"></path>
                        <path d="M119.605096,115.451733 C119.634897,115.048729 119.704434,114.645725 119.81619,114.24272 L120.630765,111.315236 C121.529777,108.083599 124.827813,106.210516 127.994224,107.128048 L133.867608,108.831311 C133.927211,108.157102 133.954529,107.477825 133.949562,106.793478 C133.939628,105.668108 133.204524,104.68721 132.144087,104.380522 L126.623354,102.778643 C123.456943,101.858577 120.161391,103.734194 119.259895,106.965832 L118.44532,109.893316 C117.886541,111.900733 118.3882,113.958843 119.605096,115.451733" id="Fill-61" fill="#8B572A" opacity="0.533232276"></path>
                        <path d="M30.0907569,117.923239 C30.679337,118.873721 31.8093114,119.314744 32.8672655,119.008056 L38.3904812,117.406177 C41.556893,116.488645 43.3946536,113.122673 42.495641,109.891035 L41.681066,106.966085 C40.7820534,103.734448 37.4840182,101.85883 34.3176063,102.778897 L28.7943907,104.380775 C27.7339531,104.687464 27.0013324,105.670896 26.9913985,106.793731 C26.9541466,110.729993 28.0319684,114.595286 30.0907569,117.923239" id="Fill-75" fill="#9F725F"></path>
                        <path d="M30.0907569,117.923239 C30.679337,118.873721 31.8093114,119.314744 32.8672655,119.008056 L38.3904812,117.406177 C41.556893,116.488645 43.3946536,113.122673 42.495641,109.891035 L41.681066,106.966085 C40.7820534,103.734448 37.4840182,101.85883 34.3176063,102.778897 L28.7943907,104.380775 C27.7339531,104.687464 27.0013324,105.670896 26.9913985,106.793731 C26.9541466,110.729993 28.0319684,114.595286 30.0907569,117.923239 L30.0907569,117.923239 Z" id="Stroke-77" stroke="#504B46" stroke-linecap="round" stroke-linejoin="round"></path>
                        <path d="M41.3363617,115.451733 C41.3065602,115.048729 41.2370233,114.645725 41.1252676,114.24272 L40.3106927,111.315236 C39.41168,108.083599 36.1136448,106.210516 32.9472329,107.128048 L27.0738494,108.831311 C27.0142464,108.157102 26.9869283,107.477825 26.9918952,106.793478 C27.0018291,105.668108 27.7369333,104.68721 28.7973708,104.380522 L34.318103,102.778643 C37.4845149,101.858577 40.7800666,103.734194 41.6815627,106.965832 L42.4961377,109.893316 C43.0549163,111.900733 42.5532573,113.958843 41.3363617,115.451733" id="Fill-79" fill="#8B572A" opacity="0.356984608"></path>
                        <path d="M30.0919987,117.925013 C30.6805788,118.875495 31.8105532,119.316519 32.8709907,119.007295 L38.3917229,117.405417 C41.5581347,116.487885 43.3958954,113.124447 42.4943993,109.892809 L41.6798243,106.965325 C40.7808117,103.733687 37.4852599,101.860604 34.3188481,102.778136 L28.7956324,104.380015 C27.7376783,104.686704 27.0025741,105.670135 26.9926403,106.792971 C26.9727726,108.678727 27.2111848,110.549275 27.6904926,112.353923 C28.2120192,114.313183 29.0191438,116.191335 30.0919987,117.925013 L30.0919987,117.925013 Z" id="Stroke-81" stroke="#504B46" stroke-linecap="round" stroke-linejoin="round"></path>
                        <path d="M104.063601,39.9535741 C104.063601,37.5938448 102.47667,35.6295159 100.338411,35.064296 L100.338411,33.6170292 C100.338411,22.4190869 91.4426562,13.3400853 80.4707287,13.3400853 C69.4988012,13.3400853 60.6030465,22.4190869 60.6030465,33.6170292 L60.6030465,35.064296 C58.4647872,35.6295159 56.8778561,37.5938448 56.8778561,39.9535741 C56.8778561,42.3335804 58.4896218,44.3156517 60.6576827,44.8605945 C61.2239116,55.5414747 69.8638699,64.032445 80.4707287,64.032445 C91.0775875,64.032445 99.7175458,55.5414747 100.283775,44.8605945 C102.451836,44.3156517 104.063601,42.3335804 104.063601,39.9535741" id="Fill-91" fill="#9F725F"></path>
                        <path d="M104.063601,39.9535741 C104.063601,37.5938448 102.47667,35.6295159 100.338411,35.064296 L100.338411,33.6170292 C100.338411,22.4190869 91.4426562,13.3400853 80.4707287,13.3400853 C69.4988012,13.3400853 60.6030465,22.4190869 60.6030465,33.6170292 L60.6030465,35.064296 C58.4647872,35.6295159 56.8778561,37.5938448 56.8778561,39.9535741 C56.8778561,42.3335804 58.4896218,44.3156517 60.6576827,44.8605945 C61.2239116,55.5414747 69.8638699,64.032445 80.4707287,64.032445 C91.0775875,64.032445 99.7175458,55.5414747 100.283775,44.8605945 C102.451836,44.3156517 104.063601,42.3335804 104.063601,39.9535741 L104.063601,39.9535741 Z" id="Stroke-93" stroke="#504B46" stroke-linecap="round" stroke-linejoin="round"></path>
                        <path d="M76.7455383,41.2208831 C75.9781491,39.7330624 74.6321136,38.6862651 73.0203479,38.6862651 C71.4085822,38.6862651 70.0625467,39.7330624 69.2951575,41.2208831" id="Stroke-95" stroke="#504B46" stroke-linecap="round" stroke-linejoin="round"></path>
                        <path d="M91.6462999,41.2208831 C90.8789107,39.7330624 89.5328753,38.6862651 87.9211095,38.6862651 C86.3093438,38.6862651 84.9633084,39.7330624 84.1959191,41.2208831" id="Stroke-97" stroke="#504B46" stroke-linecap="round" stroke-linejoin="round"></path>
                        <path d="M72.8340884,52.626664 C74.3663834,54.1144848 77.0634212,55.161282 80.2844692,55.161282 C83.5055172,55.161282 86.202555,54.1144848 87.73485,52.626664" id="Stroke-99" stroke="#504B46" stroke-linecap="round" stroke-linejoin="round"></path>
                        <path d="M80,24.7458662 C88.836556,24.7458662 95.9174647,25.2001454 95.9174647,22.4004837 C95.9174647,19.600822 89.7993123,12.7284094 80.9627563,12.7284094 C72.1262003,12.7284094 66.008048,17.9259471 66.008048,20.7256088 C66.008048,23.5252706 71.163444,24.7458662 80,24.7458662 Z" id="Oval-7" fill="#4A4A4A"></path>
                        <g id="laptop" transform="translate(41.000000, 80.000000)">
                            <path d="M89.4045698,47.801927 C89.4045698,49.9005907 69.3903635,51.6038539 44.7022849,51.6038539 C20.0142063,51.6038539 0,49.9005907 0,47.801927 C0,45.7032633 20.0142063,44 44.7022849,44 C69.3903635,44 89.4045698,45.7032633 89.4045698,47.801927" id="Fill-128" fill="#E4EDF1"></path>
                            <path d="M34.9669205,39.2865787 L30,39.2865787 L41.8610063,1.75649026 C42.1937899,0.709693035 43.1474387,0 44.2252604,0 L47.3842219,0" id="Fill-130" fill="#E4EDF1"></path>
                            <path d="M34.9669205,39.2865787 L30,39.2865787 L41.8610063,1.75649026 C42.1937899,0.709693035 43.1474387,0 44.2252604,0 L47.3842219,0" id="Stroke-132" stroke="#4F4A45" stroke-linejoin="round"></path>
                            <path d="M83.4274753,39.2865787 L35,39.2865787 L47.4173014,0 L92.4349857,0 C93.2272095,0 93.9747311,0.387796551 94.4416216,1.04172799 C94.9085122,1.69819405 95.042619,2.54222184 94.7967564,3.3127457 L83.4274753,39.2865787 Z" id="Fill-134" fill="#ADBBC7"></path>
                            <path d="M83.4274753,39.2865787 L35,39.2865787 L47.4173014,0 L92.4349857,0 C93.2272095,0 93.9747311,0.387796551 94.4416216,1.04172799 C94.9085122,1.69819405 95.042619,2.54222184 94.7967564,3.3127457 L83.4274753,39.2865787 L83.4274753,39.2865787 Z" id="Stroke-136" stroke="#4F4A45" stroke-linejoin="round"></path>
                            <polygon id="Fill-138" fill="#CBD8DE" points="80.1716589 0 47.4173014 0 35 39.2865787 41.6780247 39.2865787"></polygon>
                            <path d="M83.9109356,39 L33,39 L33,45.336545 L78.944015,45.336545 C81.6882386,45.336545 83.9109356,43.0680619 83.9109356,40.267309 L83.9109356,39 Z" id="Fill-140" fill="#CBD8DE"></path>
                            <path d="M83.9109356,39 L33,39 L33,45.336545 L78.944015,45.336545 C81.6882386,45.336545 83.9109356,43.0680619 83.9109356,40.267309 L83.9109356,39 L83.9109356,39 Z" id="Stroke-142" stroke="#4F4A45" stroke-linejoin="round"></path>
                            <path d="M32.8346027,39 L8,39 L8,40.267309 C8,43.0680619 10.2226969,45.336545 12.9669205,45.336545 L32.8346027,45.336545 L32.8346027,39 Z" id="Fill-144" fill="#E4EDF1"></path>
                            <path d="M32.8346027,39 L8,39 L8,40.267309 C8,43.0680619 10.2226969,45.336545 12.9669205,45.336545 L32.8346027,45.336545 L32.8346027,39 L32.8346027,39 Z" id="Stroke-146" stroke="#4F4A45" stroke-linejoin="round"></path>
                            <path d="M69.2973535,18.6141918 C69.2824527,17.0376594 70.5564678,16.2798086 70.6160709,16.2443239 C69.8983509,15.1747152 68.7807937,15.0277073 68.3834401,15.009965 C67.4347583,14.9111149 66.5307787,15.580254 66.046504,15.580254 C65.5671961,15.580254 64.8221581,15.0251727 64.0349012,15.0378458 C62.9992982,15.0555881 62.043166,15.653758 61.5117055,16.5991705 C60.4338838,18.5052032 61.2360414,21.326233 62.2840617,22.87235 C62.7956545,23.6302007 63.4090692,24.4792978 64.2087434,24.4463477 C64.983583,24.4159323 65.2741478,23.9368895 66.2079289,23.9368895 C67.14171,23.9368895 67.4049567,24.4463477 68.2220152,24.43114 C69.0539744,24.4184669 69.5804679,23.6631508 70.0895773,22.9027654 C70.6781574,22.0257876 70.919053,21.1766905 70.9339538,21.1310674 C70.9140861,21.1234636 69.3147377,20.4974129 69.2973535,18.6141918" id="Fill-148" fill="#EDF2F4"></path>
                            <path d="M69.2973535,18.6141918 C69.2824527,17.0376594 70.5564678,16.2798086 70.6160709,16.2443239 C69.8983509,15.1747152 68.7807937,15.0277073 68.3834401,15.009965 C67.4347583,14.9111149 66.5307787,15.580254 66.046504,15.580254 C65.5671961,15.580254 64.8221581,15.0251727 64.0349012,15.0378458 C62.9992982,15.0555881 62.043166,15.653758 61.5117055,16.5991705 C60.4338838,18.5052032 61.2360414,21.326233 62.2840617,22.87235 C62.7956545,23.6302007 63.4090692,24.4792978 64.2087434,24.4463477 C64.983583,24.4159323 65.2741478,23.9368895 66.2079289,23.9368895 C67.14171,23.9368895 67.4049567,24.4463477 68.2220152,24.43114 C69.0539744,24.4184669 69.5804679,23.6631508 70.0895773,22.9027654 C70.6781574,22.0257876 70.919053,21.1766905 70.9339538,21.1310674 C70.9140861,21.1234636 69.3147377,20.4974129 69.2973535,18.6141918 L69.2973535,18.6141918 Z" id="Stroke-150" stroke="#4F4A45" stroke-linejoin="round"></path>
                            <path d="M67,11.1431127 L68.1200406,10" id="Stroke-152" stroke="#4F4A45" stroke-linecap="round" stroke-linejoin="round"></path>
                            <path d="M83.4274753,39.2865787 L35,39.2865787 L47.4173014,0 L92.4349857,0 C93.2272095,0 93.9747311,0.387796551 94.4416216,1.04172799 C94.9085122,1.69819405 95.042619,2.54222184 94.7967564,3.3127457 L83.4274753,39.2865787 L83.4274753,39.2865787 Z" id="Stroke-154" stroke="#4F4A45" stroke-linejoin="round"></path>
                        </g>
                    </g>
                </g>
            </g>
        </g>
    </g>
</svg>