<?xml version="1.0" encoding="UTF-8" standalone="no"?>
<svg width="131px" height="115px" viewBox="0 0 131 115" version="1.1" xmlns="http://www.w3.org/2000/svg" xmlns:xlink="http://www.w3.org/1999/xlink">
    <!-- Generator: Sketch 40.3 (33839) - http://www.bohemiancoding.com/sketch -->
    <title>support chat</title>
    <desc>Created with Sketch.</desc>
    <defs></defs>
    <g id="KING-OF-CRAFTS" stroke="none" stroke-width="1" fill="none" fill-rule="evenodd">
        <g id="Desktop-HD" transform="translate(-589.000000, -6189.000000)">
            <g id="support" transform="translate(0.000000, 6012.000000)">
                <g id="support-chat" transform="translate(589.000000, 177.000000)">
                    <g id="chat" transform="translate(39.070175, 39.396226)">
                        <path d="M18.5673305,38.1287159 C7.71590967,35.3146445 0,28.1242223 0,19.6981132 C0,8.81914568 12.8619951,0 28.7280702,0 C44.5941452,0 57.4561404,8.81914568 57.4561404,19.6981132 C57.4561404,30.5770807 44.5941452,39.3962264 28.7280702,39.3962264 C27.4246843,39.3962264 26.1415714,39.3367104 24.8841966,39.2214257 L21.8333333,54.7169811 L18.5673305,38.1287159 Z" id="Combined-Shape" stroke="#4990E2" fill="#8FBAEC"></path>
                        <g id="rect" transform="translate(11.491228, 13.132075)">
                            <rect id="Rectangle-8" fill="#0C3A71" x="0" y="0" width="34.4736842" height="2.18867925"></rect>
                            <rect id="Rectangle-8-Copy" fill="#0B3A71" x="0" y="13.1320755" width="34.4736842" height="2.18867925"></rect>
                            <rect id="Rectangle-8-Copy-2" fill="#0C3A71" x="0" y="6.56603774" width="34.4736842" height="2.18867925"></rect>
                        </g>
                    </g>
                    <path d="M21.0606476,49.0956192 C20.3482682,46.5275169 25.4393493,6.0231099 68.3932838,6.0231099 C104.499273,7.83286674 110.496917,45.6606165 109.907789,48.6900913 C110.727757,51.1619196 114.642837,48.7098925 116.056657,49.381267 C117.470477,50.0526416 116.898485,0 67.5303527,0 C18.1622208,0 14.679523,47.2738626 14.1514992,49.0956192 C16.5268114,49.4663144 21.4779373,49.832827 21.0606476,49.0956192 Z" id="Path-16" fill="#3BB59A"></path>
                    <g id="left-ear" transform="translate(0.000000, 48.150943)">
                        <path d="M22.2951057,0.675397305 C19.8024373,0.850062902 -1.81194854,-3.13726256 0.138942981,22.9529157 C2.08983451,49.043094 18.3546662,46.0906264 21.1224595,46.2132815 C21.6309803,46.0906264 21.1224595,0.675397305 21.1224595,0.675397305" id="Path-17" fill="#F4C26F"></path>
                        <path d="M21.8790841,0.788936156 C22.3348677,0.788936156 22.3349154,46.0121444 22.3349154,46.0121444 C22.3349154,46.0121444 29.1386713,45.8540712 29.0681814,39.9733979 C29.0681814,33.706457 30.1138825,8.70441721 29.1444808,6.37896747 C28.9179709,4.29527533 24.8252902,0.872906763 22.1151547,0.610863549" id="Path-18" fill="#F6A623"></path>
                    </g>
                    <g id="left-ear-copy" transform="translate(116.000000, 71.650943) scale(-1, 1) translate(-116.000000, -71.650943) translate(101.000000, 48.150943)">
                        <path d="M22.2951057,0.675397305 C19.8024373,0.850062902 -1.81194854,-3.13726256 0.138942981,22.9529157 C2.08983451,49.043094 18.3546662,45.9861008 21.1224595,46.108756 C22.3356833,46.108756 21.1224595,0.675397305 21.1224595,0.675397305" id="Path-17" fill="#F5C26F"></path>
                        <path d="M21.8790841,0.788936156 C21.9933393,1.46809257 22.3349154,46.0121444 22.3349154,46.0121444 C22.3349154,46.0121444 29.1386713,45.8540712 29.0681814,39.9733979 C29.0681814,33.706457 30.1138825,8.70441721 29.1444808,6.37896747 C28.9179709,4.29527533 24.4710267,0.805062223 22.1151547,0.610863549" id="Path-18" fill="#F6A623"></path>
                    </g>
                    <g id="microphone" transform="translate(59.754386, 92.924528)">
                        <path d="M47.8821889,1.32378631 C47.2474505,2.32435902 43.727012,11.2963664 37.8473667,11.2963664 C31.9677214,11.2963664 24.1362467,10.9822913 24.1362467,10.9822913 C24.1362467,10.9822913 22.739332,3.54984649 10.6477928,4.08697499 C-1.44374649,4.62410349 0.645609356,14.2231963 0.739851694,15.0949419 C1.08762117,15.9168765 0.855817755,21.5191455 12.4427756,21.5191455 C24.0297334,21.5191455 24.3598095,14.27744 24.8221003,13.8193034 C24.0896012,13.6013791 37.9040333,13.9762335 38.4376419,13.795631 C39.3652887,13.9464656 46.0495134,12.0633557 50.9905301,1.32378631 C50.4107437,1.14221041 48.1132856,0.819163341 48.1132856,0.819163341" id="Path-19" fill="#48C5A9"></path>
                        <ellipse id="Oval-5" fill="#50E3C2" cx="12.6403509" cy="13.2264151" rx="8.04385965" ry="5.47169811"></ellipse>
                    </g>
                </g>
            </g>
        </g>
    </g>
</svg>