<?xml version="1.0" encoding="UTF-8" standalone="no"?>
<svg width="117px" height="147px" viewBox="0 0 117 147" version="1.1" xmlns="http://www.w3.org/2000/svg" xmlns:xlink="http://www.w3.org/1999/xlink">
    <!-- Generator: Sketch 40.3 (33839) - http://www.bohemiancoding.com/sketch -->
    <title>tell us</title>
    <desc>Created with Sketch.</desc>
    <defs>
        <rect id="path-1" x="18.1551724" y="30.8518519" width="60.5172414" height="23.5925926" rx="5"></rect>
        <filter x="-50%" y="-50%" width="200%" height="200%" filterUnits="objectBoundingBox" id="filter-2">
            <feOffset dx="0" dy="2" in="SourceAlpha" result="shadowOffsetOuter1"></feOffset>
            <feGaussianBlur stdDeviation="2" in="shadowOffsetOuter1" result="shadowBlurOuter1"></feGaussianBlur>
            <feColorMatrix values="0 0 0 0 0   0 0 0 0 0   0 0 0 0 0  0 0 0 0.5 0" type="matrix" in="shadowBlurOuter1"></feColorMatrix>
        </filter>
    </defs>
    <g id="KING-OF-CRAFTS" stroke="none" stroke-width="1" fill="none" fill-rule="evenodd">
        <g id="Desktop-HD" transform="translate(-154.000000, -1343.000000)">
            <g id="how-does" transform="translate(66.000000, 1112.000000)">
                <g id="tell-us" transform="translate(88.000000, 231.000000)">
                    <g id="tablet">
                        <path d="M0,3.9937047 C0,1.7880425 1.78859388,0 3.99601985,0 L102.917773,0 C105.124714,0 106.913793,1.7894015 106.913793,3.9937047 L106.913793,117.598888 C106.913793,119.80455 105.125199,121.592593 102.917773,121.592593 L3.99601985,121.592593 C1.78907903,121.592593 0,119.803191 0,117.598888 L0,3.9937047 Z M8.06896552,18.6681269 C8.06896552,16.4627662 9.86201017,14.6749681 12.0696872,14.6749681 L92.8268646,14.6749681 C95.0364021,14.6749681 96.8275862,16.4659185 96.8275862,18.6681269 L96.8275862,102.924466 C96.8275862,105.129826 95.0345416,106.917625 92.8268646,106.917625 L12.0696872,106.917625 C9.86014961,106.917625 8.06896552,105.126674 8.06896552,102.924466 L8.06896552,18.6681269 Z" id="Combined-Shape" fill="#D8D8D8"></path>
                        <g id="Rectangle-9">
                            <use fill="black" fill-opacity="1" filter="url(#filter-2)" xlink:href="#path-1"></use>
                            <use fill="#F6A623" fill-rule="evenodd" xlink:href="#path-1"></use>
                        </g>
                        <rect id="Rectangle-9-Copy" fill="#F6A623" x="18.1551724" y="70.7777778" width="60.5172414" height="23.5925926" rx="5"></rect>
                    </g>
                    <g id="hand" transform="translate(40.344828, 44.555556)">
                        <path d="M28.5426771,4.91880921 C28.0216353,13.6110095 29.5397302,31.047908 30.718778,46.1115798 C31.8032823,55.5625142 18.2837444,34.485245 11.9843133,33.2866408 C-9.48758859,30.6822106 4.47040348,37.5026286 10.2080443,42.5242646 C12.7316678,44.7458249 19.5781974,50.2126159 24.4233511,55.9996104 C35.15906,70.9815945 32.8118182,67.7029076 38.5607527,69.907075 C39.58226,70.6663307 41.4012159,81.4098615 42.1093248,81.5609743 C52.6835252,81.8768781 60.1848565,81.7527034 64.9804073,81.5609743 C65.689485,81.295248 65.8784026,74.0801798 66.4158806,69.907075 C66.7046695,68.9098704 72.2523828,65.2227526 72.6459658,63.0252921 C74.1161906,61.6304946 73.3393565,25.9965888 72.6459658,26.3092238 C71.2201581,23.1420643 64.799043,24.4299413 63.3785911,31.1826033 C62.2857914,35.3762341 63.8282626,22.6927 56.4725185,23.7999986 C50.7644236,24.7459745 53.1679566,32.2977813 51.7627852,31.5271624 C48.9032301,24.6817447 47.5479685,23.3452673 44.9551334,23.3288092 C39.791809,23.522865 38.9934037,30.9634006 38.5607527,31.1826033 C37.6043783,35.2851538 37.2715328,3.67966897 34.6617859,1.77888586 C31.5268633,-0.869228657 28.6707972,1.88029981 28.5426771,4.91880921 Z" id="Path-20" fill="#B98F6B"></path>
                        <rect id="Rectangle-10" fill="#1A3F69" x="30.2586207" y="75.2222222" width="46.3965517" height="27.2222222"></rect>
                    </g>
                </g>
            </g>
        </g>
    </g>
</svg>