<?xml version="1.0" encoding="UTF-8" standalone="no"?>
<svg width="51px" height="58px" viewBox="0 0 51 58" version="1.1" xmlns="http://www.w3.org/2000/svg" xmlns:xlink="http://www.w3.org/1999/xlink">
    <!-- Generator: Sketch 47 (45396) - http://www.bohemiancoding.com/sketch -->
    <title>users-8</title>
    <desc>Created with Sketch.</desc>
    <defs></defs>
    <g id="WHIRLWORK-WEB" stroke="none" stroke-width="1" fill="none" fill-rule="evenodd">
        <g id="Desktop-HD-Copy-4" transform="translate(-952.000000, -2263.000000)">
            <g id="users-8" transform="translate(952.000000, 2263.000000)">
                <g id="svg5463">
                    <path d="M0.343828051,56.7033787 C0.343828051,56.7033787 -1.42720961,44.3934123 13.8287645,43.0200549 L20.3569122,43.0200549 L20.3569122,40.6356033 C20.3569122,40.6356033 24.9490229,42.199489 29.5990119,40.8100751 L29.7457117,43.0200549 L37.3741081,43.0200549 C37.3741081,43.0200549 50.658501,44.0715569 49.8550674,56.7033787 L0.343828051,56.7033787 L0.343828051,56.7033787 Z" id="body-bg-flat" fill="#FFFFFF"></path>
                    <path d="M49.9711544,57.0559579 L49.9711544,57.0559579 L1.05879699,57.0559579 L1.05879699,57.0559579 L0.110195343,57.0559579 L0.346981126,53.8486981 C0.809309686,47.5864873 7.03217965,42.8074177 14.1533962,42.8074177 L19.5729848,42.8074177 L19.5729848,43.4471475 L14.5857099,43.4471475 C7.72232266,43.4471475 1.72475393,48.0472654 1.27916138,54.0749876 L1.11468676,56.2999136 L49.8419146,56.2999136 L49.75079,54.0749876 C49.3051974,48.0472654 43.3076287,43.4471475 36.4442361,43.4471475 L29.7686333,43.4471475 L29.7686333,42.8074177 L36.8330522,42.8074177 C43.9542685,42.8074177 50.1771387,47.5864873 50.6394671,53.8486981 L50.8762528,57.0559579 L49.9711544,57.0559579 L49.9711544,57.0559579 Z" id="Rounded-Rectangle-13" fill="#3B434F"></path>
                    <path d="M24.7074839,50.0189215 C20.7780093,50.0189215 17.5925318,47.493247 17.5925318,44.3776636 C17.5925318,43.8325136 17.6920035,43.3060741 17.8739801,42.8074177 L17.8859367,42.8074177 L18.640946,42.8074177 L19.9397343,42.8074177 L19.9397343,43.4471475 L18.4358275,43.4471475 C18.3646181,43.7488156 18.326031,44.059577 18.326031,44.3776636 C18.326031,47.172053 21.1831101,49.437349 24.7074839,49.437349 C28.2318631,49.437349 31.0889317,47.172053 31.0889317,44.3776636 C31.0889317,44.059577 31.0503497,43.7488156 30.979135,43.4471475 L29.4752337,43.4471475 L29.4752337,42.8074177 L30.7740166,42.8074177 L31.5290312,42.8074177 L31.5409825,42.8074177 C31.7229592,43.3060741 31.8224309,43.8325136 31.8224309,44.3776636 C31.8224309,47.493247 28.6369639,50.0189215 24.7074839,50.0189215 L24.7074839,50.0189215 Z" id="Ellipse-4" fill="#3B434F"></path>
                    <path d="M20.5265336,40.5028537 L20.5265336,44.0897642 C20.5265336,45.9510917 22.4312495,47.4600023 24.7808338,47.4600023 C27.1304182,47.4600023 29.0351341,45.9510917 29.0351341,44.0897642 L29.0351341,40.5768553 C29.2820296,40.5172714 29.5266011,40.4525542 29.7686333,40.3826374 L29.7686333,44.1141776 C29.7686333,46.3153347 27.5191031,48.0997321 24.7441616,48.0997321 C21.9692201,48.0997321 19.7196845,46.3153347 19.7196845,44.1141776 L19.7196845,40.2721672 C19.9854356,40.3554826 20.2546022,40.4321133 20.5265336,40.5028537 L20.5265336,40.5028537 Z" id="neck" fill="#3B434F"></path>
                    <path d="M24.9644369,4.01648624 C34.0892691,4.01648624 41.2915056,10.7774409 41.0573221,18.900892 L40.8084224,27.5346842 C40.5878006,35.1877814 33.4966619,41.2371675 24.9644369,41.2371675 C16.4322118,41.2371675 9.34107304,35.1877814 9.12045147,27.5346842 L8.87155176,18.900892 C8.6373734,10.7774409 15.8396047,4.01648624 24.9644369,4.01648624 L24.9644369,4.01648624 Z" id="2-copy-5" fill="#FFFFFF"></path>
                    <path d="M41.7904749,18.6332129 L41.5296712,27.6177499 C41.2984991,35.581754 33.8681438,41.8768974 24.9277751,41.8768974 C15.9874009,41.8768974 8.55705104,35.581754 8.32587361,27.6177499 L8.06506473,18.6332129 C7.81968531,10.1797452 15.3664477,3.14412738 24.9277751,3.14412738 C34.4891024,3.14412738 42.0358595,10.1797452 41.7904749,18.6332129 L41.7904749,18.6332129 Z M24.8911395,4.07464359 C15.8910509,4.07464359 8.78727882,10.7827779 9.0182515,18.8427638 L9.26375161,27.4091058 C9.48135643,35.0024111 16.4755575,41.0045385 24.8911395,41.0045385 C33.3067213,41.0045385 40.300917,35.0024111 40.518522,27.4091058 L40.7640168,18.8427638 C40.995,10.7827779 33.8912279,4.07464359 24.8911395,4.07464359 L24.8911395,4.07464359 Z" id="2-line" fill="#3B434F"></path>
                    <path d="M20.0861193,33.8593409 L20.4946723,33.4059048 C21.8081293,34.0015829 23.3685817,34.34692 25.0427027,34.34692 C26.7354746,34.34692 28.3119231,33.9937211 29.6344357,33.3857716 L30.0621956,33.8541287 C28.6235016,34.5144824 26.9091934,34.8980267 25.0685726,34.8980267 C23.2327473,34.8980267 21.5225048,34.5165457 20.0861193,33.8593409 L20.0861193,33.8593409 Z" id="2" fill="#3B434F"></path>
                    <path d="M8.04681761,19.9433881 C8.04479263,19.9434795 7.86671927,19.8307258 7.53045647,19.7467823 C7.36239332,19.7049021 7.15351846,19.6704511 6.91544212,19.6619571 C6.85598463,19.6598356 6.79479063,19.6593322 6.7321749,19.6607423 C6.66955899,19.6621525 6.60551621,19.665472 6.5404189,19.6709837 C6.4102401,19.6820111 6.27579061,19.7018281 6.14049633,19.732685 C5.59876893,19.856121 5.04613944,20.1562334 4.7215814,20.7756679 C4.55865968,21.0854018 4.45118196,21.4750025 4.42276749,21.9624611 C4.4156585,22.0843288 4.41348654,22.2123114 4.41660283,22.3466917 C4.41972444,22.4810719 4.42813981,22.6218497 4.44219481,22.7693082 C4.47028934,23.0642127 4.52102203,23.3858434 4.59661211,23.7363177 C4.5949595,23.7359724 4.52611103,24.7954154 5.00380612,26.0127868 C5.45288751,27.2030076 6.53127445,28.665088 8.5223514,29.0828917 C8.29335642,26.0597044 8.28624244,22.9798491 8.04681761,19.9433881 L8.04681761,19.9433881 L8.04681761,19.9433881 Z" id="Shape-11-copy" fill="#FFFFFF"></path>
                    <path d="M8.27385569,20.0652641 C8.27385569,20.0652641 4.80525093,19.2131216 4.927319,22.040452 C4.927319,22.040452 5.44373257,26.1401703 5.66798462,26.5180115 C5.66798462,26.5180115 7.03020178,28.905009 9.27834711,29.0107953 C11.4755813,29.1141854 9.27834711,29.0107953 9.27834711,29.0107953 L9.30563365,29.7801798 C9.30563365,29.7801798 5.35424994,29.3784867 4.59106668,25.7680612 L3.98870125,22.4881643 C3.98870125,22.4881643 3.52099006,18.1475431 8.05781409,19.251179 C12.4776016,20.3263458 8.05781409,19.251179 8.05781409,19.251179 L8.27385569,20.0652641" id="Shape-3" fill="#3B434F"></path>
                    <path d="M7.12898633,25.7611644 C7.12898633,25.7611644 6.93486944,25.877479 6.76811266,25.877479 C6.60135589,25.877479 6.40960522,25.7611644 6.40960522,25.7611644 L6.05164343,22.9010803 C6.05164343,22.9010803 6.54553936,21.4925649 8.64132399,22.2369246 L8.69086565,23.0547243 C8.69086565,23.0547243 6.85213375,22.5376858 6.89015443,23.1815171 C6.92675338,23.8012387 7.12898633,25.7611644 7.12898633,25.7611644 L7.12898633,25.7611644 Z" id="Shape-4" fill="#3B434F"></path>
                    <path d="M41.7430318,19.9500645 C41.7450672,19.950156 41.9239223,19.8374812 42.2616541,19.7535918 C42.430457,19.7117407 42.6402447,19.6773148 42.8793651,19.6688247 C42.9390796,19.6667075 43.0005413,19.6662041 43.0634351,19.6676143 C43.1263237,19.6690202 43.1906445,19.6723397 43.2560304,19.6778473 C43.3867759,19.6888664 43.5218183,19.7086709 43.6577053,19.739507 C44.2018041,19.8628597 44.7568522,20.1627683 45.082832,20.7817827 C45.2464672,21.0913044 45.3544171,21.4806389 45.3829523,21.9677689 C45.3900927,22.0895534 45.3922752,22.2174487 45.3891483,22.3517375 C45.386011,22.4860261 45.377559,22.6267084 45.3634409,22.774067 C45.3352259,23.0687717 45.2842675,23.3901861 45.208347,23.7404192 C45.2100101,23.7400739 45.2791575,24.7988014 44.799369,26.0153451 C44.3483256,27.2047588 43.2652117,28.665845 41.2654152,29.0833659 C41.4954121,26.0622294 41.5025577,22.9844663 41.7430318,19.9500645 L41.7430318,19.9500645 L41.7430318,19.9500645 Z" id="Shape-11-copy_1" fill="#FFFFFF"></path>
                    <path d="M41.5142467,20.0718614 C41.5142467,20.0718614 44.9980449,19.2202972 44.8754418,22.0457057 C44.8754418,22.0457057 44.3567671,26.1426413 44.1315286,26.5202246 C44.1315286,26.5202246 42.7633463,28.9056038 40.5053587,29.0113193 C38.2984975,29.1146389 40.5053587,29.0113193 40.5053587,29.0113193 L40.4779515,29.7801798 C40.4779515,29.7801798 44.4466379,29.3787612 45.2131631,25.7707859 L45.8181674,22.4931143 C45.8181674,22.4931143 46.2879301,18.1554383 41.7312324,19.2583254 C37.2920912,20.3327642 41.7312324,19.2583254 41.7312324,19.2583254 L41.5142467,20.0718614" id="Shape-3_1" fill="#3B434F"></path>
                    <path d="M42.6641316,25.7638933 C42.6641316,25.7638933 42.8590983,25.8801287 43.0265843,25.8801287 C43.1940704,25.8801287 43.3866605,25.7638933 43.3866605,25.7638933 L43.746191,22.9057517 C43.746191,22.9057517 43.2501334,21.4981931 41.1451677,22.2420452 L41.0954108,23.0592916 C41.0954108,23.0592916 42.942196,22.5426027 42.9040074,23.1859972 C42.8672512,23.8052986 42.6641316,25.7638933 42.6641316,25.7638933 L42.6641316,25.7638933 Z" id="Shape-4_1" fill="#3B434F"></path>
                    <path d="M26.2845097,25.534696 L26.5412318,25.534696 C27.07201,26.1062227 27.2879519,26.9845051 27.5681305,27.7446716 C27.6549585,27.9802499 27.5707223,28.3923051 27.4947807,28.5588733 C27.2166638,29.1689151 26.3433638,29.1579667 25.6243605,29.4312321 C25.4312615,29.5046265 25.2876255,29.631307 25.0375612,29.6638652 C24.8745345,29.550005 24.6776948,29.5276423 24.5974565,29.3439983 C24.3993576,29.1277171 24.6546736,28.9926547 24.8541838,28.9078169 C25.2162745,28.7538484 26.3340462,28.6020971 26.4678818,28.3262443 C26.633474,28.1768889 26.5233677,27.7278373 26.4678818,27.5702 C26.3257778,27.1664393 26.2575694,26.8293594 26.0644599,26.4652121 C25.9361856,26.2233359 25.7109732,25.9683068 25.8444103,25.680087 C25.9549834,25.6424414 26.1939621,25.5996378 26.2845097,25.534696 L26.2845097,25.534696 Z" id="new_vector_shape_done" fill="#3B434F"></path>
                    <path d="M15.6120841,21.4287879 L18.2526863,21.4287879 C18.6172743,21.4287879 18.9128354,21.7099985 18.9128354,22.0568871 C18.9128354,22.4037756 18.6172743,22.6849862 18.2526863,22.6849862 L15.6120841,22.6849862 C15.247496,22.6849862 14.9519349,22.4037756 14.9519349,22.0568871 C14.9519349,21.7099985 15.247496,21.4287879 15.6120841,21.4287879 L15.6120841,21.4287879 Z" id="Rounded-Rectangle-9" fill="#3B434F"></path>
                    <path d="M31.749081,21.2892121 L34.3896832,21.2892121 C34.7542712,21.2892121 35.0498324,21.5704185 35.0498324,21.9173113 C35.0498324,22.2642 34.7542712,22.5454064 34.3896832,22.5454064 L31.749081,22.5454064 C31.384493,22.5454064 31.0889317,22.2642 31.0889317,21.9173113 C31.0889317,21.5704185 31.384493,21.2892121 31.749081,21.2892121 L31.749081,21.2892121 Z" id="Rounded-Rectangle-9-copy" fill="#3B434F"></path>
                    <path d="M33.8028837,24.8949662 C34.815633,24.8949662 35.6366317,25.5459147 35.6366317,26.3488975 C35.6366317,27.1518803 34.815633,27.802829 33.8028837,27.802829 C32.7901293,27.802829 31.9691359,27.1518803 31.9691359,26.3488975 C31.9691359,25.5459147 32.7901293,24.8949662 33.8028837,24.8949662 L33.8028837,24.8949662 Z" id="Ellipse-3" fill="#EDF1F1"></path>
                    <path d="M16.0521888,24.8949662 C17.0649381,24.8949662 17.8859367,25.5459147 17.8859367,26.3488975 C17.8859367,27.1518803 17.0649381,27.802829 16.0521888,27.802829 C15.0394343,27.802829 14.218441,27.1518803 14.218441,26.3488975 C14.218441,25.5459147 15.0394343,24.8949662 16.0521888,24.8949662 L16.0521888,24.8949662 Z" id="Ellipse-3-copy" fill="#EDF1F1"></path>
                    <path d="M39.5975324,19.5444903 L39.5975324,23.8481313 C39.5975324,24.899833 38.3036336,26.5409234 36.1952683,26.6349043 C35.885547,26.6231947 29.6219334,26.6396838 29.6219334,26.6396838 C26.8062695,26.6396838 26.2478322,23.9644459 26.2478322,23.9644459 L26.2478322,21.0565831 L23.6072352,21.0565831 L23.6072352,23.9644459 C23.6072352,23.9644459 23.0487979,26.6396838 20.233134,26.6396838 C20.233134,26.6396838 13.9695204,26.6231947 13.659799,26.6349043 C11.5514337,26.5409234 10.257535,24.899833 10.257535,23.8481313 L10.257535,19.5444903 L7.91033781,19.5444903 L7.91033781,18.3813452 L21.5534325,18.3813452 C21.5534325,18.3813452 23.6072352,18.6444151 23.6072352,19.7771193 L26.2478322,19.7771193 C26.2478322,18.6444151 28.3016349,18.3813452 28.3016349,18.3813452 L41.9447296,18.3813452 L41.9447296,19.5444903 L39.5975324,19.5444903 L39.5975324,19.5444903 Z M22.1402318,20.1260628 C22.1402318,19.7114662 21.5534325,19.6608048 21.5534325,19.6608048 L11.7245386,19.6608048 L11.7245386,23.7318169 C11.7245386,25.0002615 13.9250361,25.4765387 13.9250361,25.4765387 L19.9397343,25.4765387 C22.0091504,25.4765387 22.1402318,23.7318169 22.1402318,23.7318169 L22.1402318,20.1260628 L22.1402318,20.1260628 Z M38.1305288,19.6608048 L28.3016349,19.6608048 C28.3016349,19.6608048 27.7148356,19.7114662 27.7148356,20.1260628 L27.7148356,23.7318169 C27.7148356,23.7318169 27.845917,25.4765387 29.9153331,25.4765387 L35.9300313,25.4765387 C35.9300313,25.4765387 38.1305288,25.0002615 38.1305288,23.7318169 L38.1305288,19.6608048 L38.1305288,19.6608048 Z M36.0767312,26.6396838 C36.1167244,26.6390224 36.1558364,26.6366639 36.1952683,26.6349043 C36.2284256,26.6361605 36.1951162,26.6377287 36.0767312,26.6396838 L36.0767312,26.6396838 Z M13.659799,26.6349043 C13.6992309,26.6366639 13.7383429,26.6390224 13.7783361,26.6396838 C13.6599512,26.6377287 13.6266418,26.6361605 13.659799,26.6349043 L13.659799,26.6349043 Z" id="Shape-1-copy-5" fill="#3B434F"></path>
                    <path d="M8.97001088,19.4059919 C8.97001088,19.4059919 8.31258449,13.8669053 12.6047375,10.937208 C12.6047375,10.937208 22.8070438,18.887822 36.6635305,10.937208 C36.6635305,10.937208 41.6423481,14.8858365 41.2112303,19.1955467 C41.2112303,19.1955467 49.6072222,11.5598039 43.1183282,10.1230065 C43.1183282,10.1230065 41.5184491,10.4923659 40.9178307,8.61091784 C40.3172124,6.72946552 39.1982025,0.653065898 24.0473347,0.468893597 C8.89646692,0.284721431 9.96413536,7.68039754 9.96413536,7.68039754 C10.0122711,7.70355065 1.54888417,10.9666881 8.97001088,19.4059919 L8.97001088,19.4059919 Z" id="fill-copy" fill="#C1BFBD"></path>
                    <path d="M41.2845802,19.8352766 C41.1076193,15.0533284 36.6635305,11.4606234 36.6635305,11.4606234 C22.8070438,19.0714951 12.6780876,11.4606234 12.6780876,11.4606234 C9.43375068,13.4297047 9.01058654,19.7771193 9.01058654,19.7771193 C0.641928518,11.3079444 9.49882169,7.58723607 9.45068611,7.5640831 C9.45068611,7.5640831 8.60350789,-0.144043348 23.7539351,0.0617929159 C39.5338619,0.27617735 40.6848748,6.30055517 41.3579303,8.43644604 C41.8946684,10.1397369 43.7784773,9.83222016 43.7784773,9.83222016 C50.5189416,11.9078407 41.2845802,19.8352766 41.2845802,19.8352766 L41.2845802,19.8352766 Z M42.8982784,10.47195 C42.8982784,10.47195 41.103847,10.8433519 40.4043813,8.61091784 C39.8142296,6.7273814 39.1982025,1.06016671 24.0473347,0.875994414 C8.89646692,0.691822112 10.4042349,7.97118801 10.4042349,7.97118801 C10.4523707,7.99434111 2.78970476,10.8814176 8.42378724,18.0324016 C8.42378724,18.0324016 8.23923462,13.3434901 12.5313877,10.4137928 C12.5313877,10.4137928 22.402473,18.6801847 36.8102303,10.47195 C36.8102303,10.47195 41.3754531,13.9185193 41.7246798,18.1487161 C41.7246798,18.1487161 48.457117,11.4387182 42.8982784,10.47195 L42.8982784,10.47195 Z" id="line" fill="#3B434F"></path>
                </g>
            </g>
        </g>
    </g>
</svg>