<?xml version="1.0" encoding="UTF-8" standalone="no"?>
<svg width="62px" height="90px" viewBox="0 0 62 90" version="1.1" xmlns="http://www.w3.org/2000/svg" xmlns:xlink="http://www.w3.org/1999/xlink">
    <!-- Generator: Sketch 47 (45396) - http://www.bohemiancoding.com/sketch -->
    <title>users-2</title>
    <desc>Created with Sketch.</desc>
    <defs>
        <filter x="-18.3%" y="-308.7%" width="136.6%" height="717.5%" filterUnits="objectBoundingBox" id="filter-1">
            <feGaussianBlur stdDeviation="-1.50402435 -2.59574859" in="SourceGraphic"></feGaussianBlur>
        </filter>
    </defs>
    <g id="WHIRLWORK-WEB" stroke="none" stroke-width="1" fill="none" fill-rule="evenodd">
        <g id="Desktop-HD-Copy-23" transform="translate(-688.000000, -1418.000000)">
            <g id="users-2" transform="translate(664.000000, 1401.000000)">
                <g id="svg5401">
                    <path d="M25.2019682,85.1775727 C25.2019682,85.1775727 23.0800443,70.2315923 41.3586029,68.5641489 L49.1801376,68.5641489 L49.1801376,65.669099 C49.1801376,65.669099 54.6820586,67.5678699 60.253325,65.8809316 L60.4290896,68.5641489 L69.5688593,68.5641489 C69.5688593,68.5641489 85.4852178,69.840816 84.5226042,85.1775727 L25.2019682,85.1775727 L25.2019682,85.1775727 Z" id="body-bg-flat" fill="#2ABE9D"></path>
                    <path d="M84.370581,85.4401576 L84.370581,85.4401576 L25.7674801,85.4401576 L25.7674801,85.4401576 L24.6309373,85.4401576 L24.9146361,81.5461062 C25.4685634,73.9429272 32.9243373,68.1404839 41.4564422,68.1404839 L47.9497847,68.1404839 L47.9497847,68.9172033 L41.974408,68.9172033 C33.7512146,68.9172033 26.5653797,74.5023747 26.0315043,81.8208526 L25.8344432,84.5222166 L84.2157356,84.5222166 L84.106557,81.8208526 C83.5726816,74.5023747 76.3868467,68.9172033 68.1636469,68.9172033 L60.1654427,68.9172033 L60.1654427,68.1404839 L68.629497,68.1404839 C77.1616018,68.1404839 84.6173759,73.9429272 85.1713029,81.5461062 L85.4550018,85.4401576 L84.370581,85.4401576 L84.370581,85.4401576 Z" id="Rounded-Rectangle-13-copy" fill="#3B434F"></path>
                    <path d="M50.058961,65.3424286 L50.058961,69.6974277 C50.058961,71.9573335 52.3410479,73.789357 55.1561429,73.789357 C57.9712379,73.789357 60.253325,71.9573335 60.253325,69.6974277 L60.253325,65.4322766 C60.5491366,65.3599336 60.8421637,65.281358 61.1321483,65.1964695 L61.1321483,69.7270689 C61.1321483,72.3995743 58.4369306,74.5660764 55.1122049,74.5660764 C51.7874791,74.5660764 49.0922553,72.3995743 49.0922553,69.7270689 L49.0922553,65.0623437 C49.4106582,65.1634999 49.7331534,65.25654 50.058961,65.3424286 L50.058961,65.3424286 Z" id="neck-copy-5" fill="#3B434F"></path>
                    <path d="M49.0483172,73.7187462 C49.3637973,73.7187462 49.6195492,73.9242303 49.6195492,74.1777142 L49.6195492,81.0975826 C49.6195492,81.3510665 49.3637973,81.5565557 49.0483172,81.5565557 C48.7328309,81.5565557 48.4770788,81.3510665 48.4770788,81.0975826 L48.4770788,74.1777142 C48.4770788,73.9242303 48.7328309,73.7187462 49.0483172,73.7187462 L49.0483172,73.7187462 Z" id="Rounded-Rectangle-14" fill="#3B434F"></path>
                    <path d="M61.044266,73.6481354 C61.3840157,73.6481354 61.6594424,73.8694275 61.6594424,74.1424112 L61.6594424,78.4496732 C61.6594424,78.7226571 61.3840157,78.9439543 61.044266,78.9439543 C60.7045101,78.9439543 60.4290896,78.7226571 60.4290896,78.4496732 L60.4290896,74.1424112 C60.4290896,73.8694275 60.7045101,73.6481354 61.044266,73.6481354 L61.044266,73.6481354 Z" id="Rounded-Rectangle-15" fill="#3B434F"></path>
                    <path d="M49.0483172,81.0622797 C49.2181919,81.0622797 49.3559023,81.1729257 49.3559023,81.3094202 L49.3559023,83.0746915 C49.3559023,83.211181 49.2181919,83.321827 49.0483172,83.321827 C48.8784361,83.321827 48.7407259,83.211181 48.7407259,83.0746915 L48.7407259,81.3094202 C48.7407259,81.1729257 48.8784361,81.0622797 49.0483172,81.0622797 L49.0483172,81.0622797 Z" id="Rounded-Rectangle-16" fill="#3B434F"></path>
                    <path d="M61.088204,78.4496732 C61.2580852,78.4496732 61.3957953,78.5603243 61.3957953,78.6968137 L61.3957953,80.462085 C61.3957953,80.5985794 61.2580852,80.7092255 61.088204,80.7092255 C60.9183293,80.7092255 60.7806189,80.5985794 60.7806189,80.462085 L60.7806189,78.6968137 C60.7806189,78.5603243 60.9183293,78.4496732 61.088204,78.4496732 L61.088204,78.4496732 Z" id="Rounded-Rectangle-16-copy" fill="#3B434F"></path>
                    <path d="M45.7511109,63.6047481 L40.1849297,64.6316786 C40.1849297,64.6316786 33.3686142,65.8722296 37.9035151,69.5633372 C42.4384225,73.2544449 54.1015549,73.9063061 54.1015549,73.9063061 C54.1015549,73.9063061 51.0178346,72.7327448 49.7074317,71.081867 L49.2680198,65.1505505 L45.7511109,63.6047481 L45.7511109,63.6047481 Z" id="Shape-1-copy" fill="#50E3C2"></path>
                    <path d="M54.2773196,74.2593603 C53.9319504,74.6105813 44.2202823,74.3690872 37.4917737,69.66965 C32.6199392,66.2669756 39.9524855,64.3032203 39.9524855,64.3032203 L45.3133147,63.3146683 L49.9710785,65.2211613 L50.3226079,70.9406454 C52.2833755,73.4108736 54.8333147,73.6939381 54.2773196,74.2593603 L54.2773196,74.2593603 Z M49.4437846,71.2230888 L48.9164905,65.2211613 L46.1042557,63.9501659 L40.7434267,65.0093287 C40.7434267,65.0093287 34.2500966,66.0791733 38.3705972,69.175374 C42.8174461,72.5167808 51.0438453,73.4135048 51.9044965,73.3414193 C52.79652,73.2666973 51.404552,73.693322 49.4437846,71.2230888 L49.4437846,71.2230888 Z" id="Shape-1-copy-2" fill="#3B434F"></path>
                    <path d="M64.5552915,63.7711111 L70.1247727,64.8011175 C70.1247727,64.8011175 76.9451237,66.0453805 72.4075387,69.7475437 C67.869941,73.4497067 56.1998942,74.1035174 56.1998942,74.1035174 C56.1998942,74.1035174 59.2854501,72.926446 60.5966199,71.2706239 L61.0362956,65.3215447 L64.5552915,63.7711111 L64.5552915,63.7711111 Z" id="Shape-1-copy-4" fill="#50E3C2"></path>
                    <path d="M56.0240289,74.3870165 C56.3695995,74.7392929 66.0870253,74.4970767 72.8195189,69.7835637 C77.6942451,66.3706976 70.3573552,64.4010634 70.3573552,64.4010634 L64.9933456,63.4095518 L60.3328221,65.3217519 L59.9810789,71.0583671 C58.0191549,73.5359943 55.467707,73.8199023 56.0240289,74.3870165 L56.0240289,74.3870165 Z M60.8604241,71.3416539 L61.3880324,65.3217519 L64.2019393,64.0469535 L69.5659427,65.1092879 C69.5659427,65.1092879 76.063126,66.1823345 71.9401739,69.2878079 C67.4906912,72.639225 59.2594141,73.5386306 58.3982602,73.466328 C57.5057023,73.3913837 58.8985,73.8192812 60.8604241,71.3416539 L60.8604241,71.3416539 Z" id="Shape-1-copy-6" fill="#3B434F"></path>
                    <path d="M55.1124753,21.0429956 C66.0451616,21.0429956 74.6743386,29.251718 74.3937576,39.1146969 L74.0955447,49.5972997 C73.8312124,58.8892048 65.3351443,66.2339858 55.1124753,66.2339858 C44.8898061,66.2339858 36.393738,58.8892048 36.1294059,49.5972997 L35.831193,39.1146969 C35.5506181,29.251718 44.179789,21.0429956 55.1124753,21.0429956 L55.1124753,21.0429956 Z" id="2-copy-5" fill="#FFFFFF"></path>
                    <path d="M75.272166,38.789698 L74.9596907,49.6981528 C74.6827177,59.3675414 65.780226,67.0107052 55.0685498,67.0107052 C44.3568673,67.0107052 35.4543819,59.3675414 35.1774026,49.6981528 L34.864921,38.789698 C34.5709259,28.5260337 43.6128878,19.9838328 55.0685498,19.9838328 C66.5242118,19.9838328 75.5661673,28.5260337 75.272166,38.789698 L75.272166,38.789698 Z M55.0246558,21.1136066 C44.2414279,21.1136066 35.7302235,29.2581977 36.0069576,39.0441213 L36.3010973,49.4448304 C36.561815,58.66414 44.9417397,65.9515424 55.0246558,65.9515424 C65.1075718,65.9515424 73.4874901,58.66414 73.748208,49.4448304 L74.0423413,39.0441213 C74.3190879,29.2581977 65.8078836,21.1136066 55.0246558,21.1136066 L55.0246558,21.1136066 Z" id="2-line" fill="#3B434F"></path>
                    <path d="M64.5595597,55.9390137 C62.9621829,57.0534236 59.3541795,58.1137278 55.1561493,58.1137278 C50.9581127,58.1137278 47.3501093,57.0534236 45.7527263,55.9390137 C45.7527263,55.9390137 45.5892945,55.5776917 45.8290804,55.3850308 C46.0733041,55.1888044 46.455785,55.2315112 46.455785,55.2315112 C48.0514897,56.3466789 50.9565099,57.2664028 55.1561493,57.2664028 C59.3557823,57.2664028 62.2608025,56.3466789 63.8565072,55.2315112 C63.8565072,55.2315112 64.2468328,55.1150116 64.4364451,55.2673596 C64.8016462,55.5607878 64.5595597,55.9390137 64.5595597,55.9390137 L64.5595597,55.9390137 Z" id="usta" fill="#3B434F"></path>
                    <path d="M52.2560258,59.8083933 L57.8805018,59.8083933 L57.8805018,60.5145019 L52.2560258,60.5145019 L52.2560258,59.8083933 L52.2560258,59.8083933 Z" id="-" fill="#3B434F"></path>
                    <path d="M34.8430587,40.3804296 C34.8406325,40.3805406 34.6272784,40.2436422 34.2243937,40.1417233 C34.0230331,40.090875 33.772775,40.0490468 33.4875298,40.0387339 C33.4162923,40.0361581 33.3429743,40.035547 33.2679529,40.037259 C33.1929312,40.0389712 33.1162,40.0430015 33.0382053,40.0496934 C32.8822348,40.0630822 32.7211476,40.0871428 32.5590482,40.1246072 C31.9099912,40.2744754 31.2478722,40.6388528 30.8590112,41.3909309 C30.6638107,41.7669901 30.535039,42.2400186 30.5009949,42.83186 C30.4924775,42.979824 30.4898752,43.1352123 30.4936089,43.2983683 C30.497349,43.4615242 30.5074316,43.6324478 30.5242713,43.8114825 C30.557932,44.1695368 30.6187161,44.5600404 30.7092825,44.9855641 C30.7073024,44.9851449 30.6248134,46.2714533 31.1971516,47.7495084 C31.7352071,49.194599 33.0272491,50.9697643 35.4128074,51.4770351 C35.1384429,47.8064729 35.1299195,44.0671079 34.8430587,40.3804296 L34.8430587,40.3804296 L34.8430587,40.3804296 Z" id="Shape-11-copy" fill="#FFFFFF"></path>
                    <path d="M35.1150786,40.5284037 C35.1150786,40.5284037 30.9592578,39.4937863 31.1055105,42.9265515 C31.1055105,42.9265515 31.7242384,47.9041695 31.9929203,48.3629203 C31.9929203,48.3629203 33.6250262,51.2610612 36.3185845,51.3895002 C38.951145,51.5150299 36.3185845,51.3895002 36.3185845,51.3895002 L36.3512772,52.3236381 C36.3512772,52.3236381 31.617027,51.8359278 30.7026383,47.4523782 L29.9809295,43.4701354 C29.9809295,43.4701354 29.4205532,38.2000285 34.8562338,39.5399932 C40.1516902,40.8453925 34.8562338,39.5399932 34.8562338,39.5399932 L35.1150786,40.5284037" id="Shape-3" fill="#3B434F"></path>
                    <path d="M33.7433824,47.4440045 C33.7433824,47.4440045 33.5108062,47.5852263 33.3110108,47.5852263 C33.1112154,47.5852263 32.8814742,47.4440045 32.8814742,47.4440045 L32.4525913,43.9714719 C32.4525913,43.9714719 33.0443402,42.2613417 35.5553514,43.1650961 L35.6147085,44.1580166 C35.6147085,44.1580166 33.4116785,43.5302613 33.457232,44.3119604 C33.5010821,45.0643871 33.7433824,47.4440045 33.7433824,47.4440045 L33.7433824,47.4440045 Z" id="Shape-4" fill="#3B434F"></path>
                    <path d="M75.2153233,40.3885356 C75.217762,40.3886467 75.4320527,40.2518441 75.8366975,40.1499909 C76.0389444,40.099178 76.2902962,40.0573803 76.5767922,40.0470722 C76.6483376,40.0445015 76.7219764,40.0438904 76.7973311,40.0456026 C76.8726794,40.0473095 76.9497437,40.0513398 77.0280843,40.0580267 C77.1847336,40.0714054 77.3465312,40.0954508 77.5093408,40.1328901 C78.161239,40.2826572 78.8262559,40.6467871 79.2168202,41.3983551 C79.4128756,41.7741567 79.5422131,42.246862 79.5764018,42.8383043 C79.5849569,42.9861674 79.5875718,43.1414497 79.5838253,43.3044946 C79.5800665,43.4675393 79.5699399,43.6383468 79.5530247,43.8172603 C79.5192195,44.1750721 79.458165,44.5653131 79.3672028,44.9905438 C79.3691954,44.9901246 79.4520426,46.2755643 78.8771962,47.7526146 C78.33679,49.1967253 77.0390845,50.9706835 74.6430791,51.4776108 C74.9186441,47.8095385 74.9272054,44.0727139 75.2153233,40.3885356 L75.2153233,40.3885356 L75.2153233,40.3885356 Z" id="Shape-11-copy_1" fill="#FFFFFF"></path>
                    <path d="M74.9412102,40.5364138 C74.9412102,40.5364138 79.1152347,39.5024985 78.9683409,42.9329302 C78.9683409,42.9329302 78.3469039,47.9071696 78.0770401,48.3656073 C78.0770401,48.3656073 76.4377873,51.2617834 73.7324367,51.3901365 C71.0883419,51.5155805 73.7324367,51.3901365 73.7324367,51.3901365 L73.6995995,52.3236381 C73.6995995,52.3236381 78.4545804,51.8362611 79.3729732,47.4556863 L80.0978437,43.4761453 C80.0978437,43.4761453 80.6606779,38.2096143 75.2011862,39.5486699 C69.8825417,40.8531853 75.2011862,39.5486699 75.2011862,39.5486699 L74.9412102,40.5364138" id="Shape-3_1" fill="#3B434F"></path>
                    <path d="M76.3189157,47.4473177 C76.3189157,47.4473177 76.5525101,47.5884434 76.7531792,47.5884434 C76.9538484,47.5884434 77.1845954,47.4473177 77.1845954,47.4473177 L77.6153577,43.9771435 C77.6153577,43.9771435 77.0210189,42.2681752 74.4990076,43.1713132 L74.4393927,44.163562 C74.4393927,44.163562 76.6520715,43.536231 76.6063168,44.3173999 C76.5622782,45.0693163 76.3189157,47.4473177 76.3189157,47.4473177 L76.3189157,47.4473177 Z" id="Shape-4_1" fill="#3B434F"></path>
                    <path d="M56.694087,47.169041 L57.0016722,47.169041 C57.6376106,47.8629525 57.8963359,48.9293071 58.2320248,49.8522532 C58.3360555,50.1382774 58.2351301,50.6385686 58.1441425,50.8408052 C57.8109239,51.5814792 56.7646016,51.5681864 55.903146,51.8999679 C55.6717894,51.9890787 55.4996955,52.1428862 55.2000873,52.1824163 C55.004761,52.0441744 54.7689225,52.0170231 54.672787,51.7940542 C54.4354398,51.5314592 54.7413403,51.367475 54.9803783,51.2644703 C55.4142081,51.0775316 56.753438,50.8932847 56.9137897,50.5583618 C57.1121898,50.377024 56.9802687,49.831814 56.9137897,49.6404208 C56.7435314,49.1502002 56.6618092,48.7409392 56.43044,48.2988146 C56.2767513,48.0051439 56.0069189,47.6955036 56.1667931,47.3455655 C56.2992734,47.2998586 56.5855997,47.2478891 56.694087,47.169041 L56.694087,47.169041 Z" id="new_vector_shape_done" fill="#3B434F"></path>
                    <path d="M74.2115059,39.6467049 C74.0926217,40.4625756 73.9881762,41.460961 73.7686118,42.3535737 C73.1120494,45.0227508 70.2575109,47.4957266 65.3833756,47.7774983 C60.5092468,48.05927 56.3609123,46.0877418 56.1178138,43.373964 C56.0765975,42.9138394 55.9663376,42.3974928 55.8817239,41.8954897 C55.191947,41.5882332 54.4810059,41.5875312 53.7489067,41.8933987 C53.6634067,42.4067654 53.5489918,42.9366929 53.5067948,43.4078225 C53.2629357,46.1305953 49.1015206,48.1086586 44.2120164,47.8259526 C39.3225123,47.5432465 36.4589724,45.0620789 35.8003358,42.3840535 C35.5800799,41.488481 35.4753075,40.4867878 35.3560462,39.6682099 L34.6375432,39.6266646 L34.7384686,38.4998052 L34.9137808,38.5099415 L39.3604662,38.7670466 L43.1139556,38.9840711 L46.8744221,39.2014945 L52.7316502,39.5401549 C53.1356034,39.5812053 53.4042101,39.7204017 53.5771901,39.9281989 C54.4183676,40.2240513 55.2353069,40.2252331 56.0280016,39.9316938 C56.1994166,39.710528 56.4716373,39.5616296 56.8905195,39.5190691 L62.7293364,39.18153 L66.4779856,38.9648236 L70.2196763,38.7485163 L74.6523822,38.4922598 L74.827141,38.4821587 L74.9277523,39.6052961 L74.2115059,39.6467049 L74.2115059,39.6467049 Z M51.1588385,40.864357 L39.6795608,40.2006373 C38.1781625,40.0966377 37.6459843,41.4522336 37.5534505,42.4854168 C37.358363,44.6636309 40.3790427,46.6132248 44.3003263,46.8399512 C48.2216098,47.0666726 51.5585929,45.4846785 51.7536801,43.3064592 C51.8462141,42.2732812 52.2662277,41.6352027 51.1588385,40.864357 L51.1588385,40.864357 Z M72.0210098,42.4546037 C71.928765,41.4248347 71.3982589,40.0737134 69.9015813,40.1773697 L58.4583905,40.8388975 C57.3544837,41.6072029 57.7731774,42.2431652 57.8654158,43.272934 C58.0598934,45.4439563 61.3863854,47.0207283 65.2953424,46.7947494 C69.2042994,46.5687755 72.2154874,44.625621 72.0210098,42.4546037 L72.0210098,42.4546037 Z" id="glasses" fill="#4A90E2"></path>
                    <path d="M35.9161336,44.9800995 C35.9161336,44.9800995 38.3609736,36.3750705 40.4884415,34.0212862 C42.6159094,31.6675021 44.4569253,31.1045193 45.4124675,31.0325195 C46.3680096,30.9605248 53.8928084,32.7477505 64.22927,30.7004298 C64.22927,30.7004298 68.3049149,30.5697384 70.0325846,33.8552466 C70.0325846,33.8552466 73.6751099,39.0911009 74.2531747,44.3159301 L74.9566043,44.3159301 C74.9566043,44.3159301 76.4472788,35.1569943 75.8359053,29.7041759 C75.224513,24.2513626 66.3395652,21.5680896 66.3395652,21.5680896 L68.2740012,20.4057858 C68.2740012,20.4057858 63.7576813,19.2840275 61.9431161,19.9076666 L63.3499753,17.583064 C63.3499753,17.583064 54.2355878,17.5976598 49.1054807,20.9039153 L49.2813396,19.2434871 C49.2813396,19.2434871 31.1988804,21.4714487 35.036845,44.6480149 L35.9161336,44.9800995 L35.9161336,44.9800995 Z" id="Shape-7" fill="#4A4A4A"></path>
                </g>
                <ellipse id="Oval-20" stroke="#000000" fill="#F0F4F9" cx="45.7263236" cy="43.2401248" rx="2.45840449" ry="2.42922049"></ellipse>
                <ellipse id="Oval-20-Copy-3" stroke="#000000" fill="#EFF3F8" cx="64.4101977" cy="43.2401248" rx="2.45840449" ry="2.42922049"></ellipse>
                <ellipse id="Oval-20-Copy" fill="#4A4A4A" cx="45.4804831" cy="42.9972027" rx="1.22920225" ry="1.21461025"></ellipse>
                <ellipse id="Oval-20-Copy-2" fill="#4A4A4A" cx="64.1643572" cy="42.9972027" rx="1.22920225" ry="1.21461025"></ellipse>
                <ellipse id="Oval-21" fill-opacity="0.307433197" fill="#4A4A4A" filter="url(#filter-1)" cx="56.0516224" cy="98.626352" rx="24.5840449" ry="1.4575323"></ellipse>
            </g>
        </g>
    </g>
</svg>