<?xml version="1.0" encoding="UTF-8" standalone="no"?>
<svg width="61px" height="75px" viewBox="0 0 61 75" version="1.1" xmlns="http://www.w3.org/2000/svg" xmlns:xlink="http://www.w3.org/1999/xlink">
    <!-- Generator: Sketch 47 (45396) - http://www.bohemiancoding.com/sketch -->
    <title>users-3</title>
    <desc>Created with Sketch.</desc>
    <defs></defs>
    <g id="WHIRLWORK-WEB" stroke="none" stroke-width="1" fill="none" fill-rule="evenodd">
        <g id="Desktop-HD-Copy-4" transform="translate(-375.000000, -2216.000000)">
            <g id="users-3" transform="translate(375.000000, 2216.000000)">
                <g id="svg4226">
                    <path d="M60.891387,55.6919473 C57.0277285,71.0022618 37.2512172,65.0061287 30.5,62.4623924 L30.5,62.4461193 C23.7487828,64.9918092 3.9722715,70.9925461 0.108612963,55.6704786 C0.108612963,55.6704786 7.03836186,55.7379856 4.95830354,36.0457675 C4.95830354,36.0457675 -2.54926142,-2.96450681 30.5,0.296116476 L30.5,0.360041018 C63.5492614,-2.89808392 56.0416965,36.0822786 56.0416965,36.0822786 C53.9616381,55.759402 60.891387,55.6919473 60.891387,55.6919473 L60.891387,55.6919473 Z" id="Shape-12" fill="#3B434F"></path>
                    <path d="M3.09925182,74.3135011 C3.09925182,74.3135011 1.84610154,58.8692986 17.8908078,57.4279191 L25.0845128,57.4279191 L25.0845128,54.4256284 C25.0845128,54.4256284 30.1447981,56.3947351 35.2688625,54.6453079 L35.4305186,57.4279191 L43.8366448,57.4279191 C43.8366448,57.4279191 58.2313968,57.9400907 57.57743,74.4599542 L3.09925182,74.3135011 L3.09925182,74.3135011 Z" id="body-bg-flat-copy" fill="#FFFFFF"></path>
                    <path d="M57.4502418,74.9290624 L3.55117448,74.9290624 L2.50586125,74.9290624 L2.7667878,70.8907644 C3.27625165,63.0059423 10.1335553,56.9885604 17.9807936,56.9885604 L23.3767631,56.9885604 C23.0267066,57.2508578 22.7701738,57.5229235 22.5856815,57.7940516 L18.4571826,57.7940516 C10.8940597,57.7940516 4.28502722,63.5861133 3.79400563,71.1756882 L3.61276251,73.9771182 L57.3078257,73.9771182 L57.2074108,71.1756882 C56.7163892,63.5861133 50.1073567,57.7940516 42.544228,57.7940516 L38.412214,57.7940516 C38.2542001,57.524919 38.0295106,57.2528743 37.7158126,56.9885604 L42.9726846,56.9885604 C50.8199227,56.9885604 57.6772266,63.0059423 58.1866902,70.8907644 L58.4476168,74.9290624 L57.4502418,74.9290624 L57.4502418,74.9290624 Z M36.1170052,57.7940516 L35.8346591,57.7940516 L35.8346591,56.9885604 L36.1483746,56.9885604 C36.1296199,57.1979059 36.117566,57.4617695 36.1170052,57.7940516 L36.1170052,57.7940516 Z M24.7484354,56.9885604 L25.0845128,56.9885604 L25.0845128,57.7940516 L24.7940498,57.7940516 C24.789708,57.4519805 24.7724046,57.189484 24.7484354,56.9885604 L24.7484354,56.9885604 Z" id="Rounded-Rectangle-13-copy-4" fill="#3B434F"></path>
                    <path d="M33.0056705,68.1922215 C33.3181545,68.1922215 33.5714728,68.4217109 33.5714728,68.7048067 C33.5714728,68.9878974 33.3181545,69.217392 33.0056705,69.217392 C32.6931923,69.217392 32.4398739,68.9878974 32.4398739,68.7048067 C32.4398739,68.4217109 32.6931923,68.1922215 33.0056705,68.1922215 L33.0056705,68.1922215 Z" id="Ellipse-5" fill="#3B434F"></path>
                    <path d="M33.0056705,71.5606392 C33.3181545,71.5606392 33.5714728,71.7901339 33.5714728,72.0732245 C33.5714728,72.3563205 33.3181545,72.5858099 33.0056705,72.5858099 C32.6931923,72.5858099 32.4398739,72.3563205 32.4398739,72.0732245 C32.4398739,71.7901339 32.6931923,71.5606392 33.0056705,71.5606392 L33.0056705,71.5606392 Z" id="Ellipse-5-copy" fill="#3B434F"></path>
                    <path d="M39.5527508,61.3089276 L35.4305186,66.8741449 C34.3091353,63.7252965 31.0657966,64.8970248 31.0657966,64.8970248 L31.0657966,74.1970543 C31.0657966,74.4395643 30.8124782,74.6361565 30.5,74.6361565 C30.1875218,74.6361565 29.9342034,74.4395643 29.9342034,74.1970543 L29.9342034,64.8968049 C29.9079622,64.8873772 26.690431,63.7381442 25.5748348,66.8741449 L21.4570774,61.3089276 C21.4570774,61.3089276 19.8642421,57.6401561 24.6866913,56.0366161 L24.6866913,54.352402 L25.5985843,54.352402 L25.5985843,59.652813 C25.7156552,60.5652187 26.4090793,63.1649811 30.5,64.0183071 C34.5953665,63.1649811 35.289548,60.5652187 35.406746,59.652813 L35.406746,54.352402 L36.3196275,54.352402 L36.3196275,56.0366161 C41.1473145,57.6401561 39.5527508,61.3089276 39.5527508,61.3089276 L39.5527508,61.3089276 Z M25.5270352,61.8015786 C25.3072367,61.5760751 24.9906537,61.0160164 24.9906537,61.0160164 C24.9906537,61.0160164 24.6866913,60.0995463 24.6866913,59.6979398 L24.6866913,57.8405717 C24.6179462,57.0028799 24.4444732,56.9885604 24.4444732,56.9885604 C20.8462736,58.594148 22.4259621,61.0892428 22.4259621,61.0892428 L25.4133578,65.3363837 C26.5799566,63.5455692 27.8355698,63.8718542 27.8355698,63.8718542 C26.7269689,63.3599707 25.9999091,62.5655307 25.5270352,61.8015786 L25.5270352,61.8015786 Z M36.5621118,56.9885604 C36.5621118,56.9885604 36.3884478,57.0028799 36.3196275,57.8405717 L36.3196275,59.6979398 C36.3196275,60.0995463 36.0153356,61.0160164 36.0153356,61.0160164 C36.0153356,61.0160164 35.6984058,61.5760751 35.4783703,61.8015786 C35.0049819,62.5655307 34.27713,63.3599707 33.1673267,63.8718542 C33.1673267,63.8718542 34.4243041,63.5455692 35.5921749,65.3363837 L38.5828137,61.0892428 C38.5828137,61.0892428 40.1642194,58.594148 36.5621118,56.9885604 L36.5621118,56.9885604 Z" id="Shape-2-copy-9" fill="#3B434F"></path>
                    <path d="M30.5406656,8.1464492 C40.5957921,8.1464492 48.5323106,16.6592456 48.2742516,26.8875769 L47.9999761,37.7584847 C47.7568615,47.394588 39.9427674,55.0114402 30.5406656,55.0114402 C21.1385636,55.0114402 13.3244695,47.394588 13.0813551,37.7584847 L12.8070796,26.8875769 C12.5490263,16.6592456 20.4855391,8.1464492 30.5406656,8.1464492 L30.5406656,8.1464492 Z" id="2-copy-5" fill="#FFFFFF"></path>
                    <path d="M49.0821508,26.5505391 L48.7947576,37.8630736 C48.5400171,47.8906435 40.3521227,55.8169315 30.500266,55.8169315 C20.6484034,55.8169315 12.4605149,47.8906435 12.2057685,37.8630736 L11.9183696,26.5505391 C11.6479733,15.90668 19.9641427,7.04805206 30.500266,7.04805206 C41.0363892,7.04805206 49.3525528,15.90668 49.0821508,26.5505391 L49.0821508,26.5505391 Z M30.4598953,8.2196758 C20.5422302,8.2196758 12.7142148,16.6659654 12.9687356,26.814387 L13.239265,37.6003675 C13.479055,47.1611861 21.1863285,54.7185343 30.4598953,54.7185343 C39.733462,54.7185343 47.4407296,47.1611861 47.6805199,37.6003675 L47.9510433,26.814387 C48.2055756,16.6659654 40.3775603,8.2196758 30.4598953,8.2196758 L30.4598953,8.2196758 Z" id="2-line" fill="#3B434F"></path>
                    <path d="M39.2294385,44.3351135 C37.7602821,45.4908043 34.4418909,46.5903851 30.5808339,46.5903851 C26.7197711,46.5903851 23.4013798,45.4908043 21.9322177,44.3351135 C21.9322177,44.3351135 21.7819044,43.9604072 22.0024429,43.7606096 C22.2270629,43.5571143 22.5788423,43.6014031 22.5788423,43.6014031 C24.0464609,44.7578797 26.7182969,45.7116728 30.5808339,45.7116728 C34.4433651,45.7116728 37.1152011,44.7578797 38.5828196,43.6014031 C38.5828196,43.6014031 38.9418141,43.480588 39.1162062,43.6385794 C39.4520929,43.9428771 39.2294385,44.3351135 39.2294385,44.3351135 L39.2294385,44.3351135 Z" id="usta" fill="#3B434F"></path>
                    <path d="M27.9135015,48.3478258 L33.0865044,48.3478258 L33.0865044,49.0800906 L27.9135015,49.0800906 L27.9135015,48.3478258 L27.9135015,48.3478258 Z" id="-" fill="#3B434F"></path>
                    <path d="M21.6089054,29.0160208 C22.5017084,29.0160208 23.225467,29.6717123 23.225467,30.4805502 C23.225467,31.2893883 22.5017084,31.9450797 21.6089054,31.9450797 C20.7161022,31.9450797 19.992338,31.2893883 19.992338,30.4805502 C19.992338,29.6717123 20.7161022,29.0160208 21.6089054,29.0160208 L21.6089054,29.0160208 Z" id="oko" fill="#3B434F"></path>
                    <path d="M39.5527508,29.0160208 C40.4455539,29.0160208 41.1693124,29.6717123 41.1693124,30.4805502 C41.1693124,31.2893883 40.4455539,31.9450797 39.5527508,31.9450797 C38.6599535,31.9450797 37.9361891,31.2893883 37.9361891,30.4805502 C37.9361891,29.6717123 38.6599535,29.0160208 39.5527508,29.0160208 L39.5527508,29.0160208 Z" id="oko_1" fill="#3B434F"></path>
                    <path d="M21.5280774,34.4347852 C23.0904798,34.4347852 24.3570602,34.5159989 24.3570602,36.1189941 C24.3570602,37.7724113 23.0904798,37.803203 21.5280774,37.803203 C19.965669,37.803203 18.6990946,37.5020846 18.6990946,36.1189941 C18.6990946,34.5033711 19.965669,34.4347852 21.5280774,34.4347852 L21.5280774,34.4347852 Z" id="Ellipse-3-copy" fill="#F5F3EF"></path>
                    <path d="M40.2802092,34.4347852 C41.8426118,34.4347852 43.1091922,34.5159989 43.1091922,36.1189941 C43.1091922,37.7724113 41.8426118,37.803203 40.2802092,37.803203 C38.7178008,37.803203 37.4512264,37.5020846 37.4512264,36.1189941 C37.4512264,34.5033711 38.7178008,34.4347852 40.2802092,34.4347852 L40.2802092,34.4347852 Z" id="Ellipse-3-copy-2" fill="#F5F3EF"></path>
                    <path d="M34.8571429,26.3633011 L35.3253341,26.9020588 L35.6158203,27.2359696 C35.6158203,27.2359696 40.7592056,24.6629658 44.3291925,27.6315789 L44.7098089,27.8006162 C44.7098089,27.8006162 43.8303374,23.4968993 36.1316435,26.014259 C35.7254565,26.1140767 35.3016482,26.229277 34.8571429,26.3633011 L34.8571429,26.3633011 Z" id="R-copy" fill="#3B434F"></path>
                    <path d="M25.9534161,26.3662972 L25.4852249,26.9039338 L25.1947387,27.2371479 C25.1947387,27.2371479 20.0513534,24.669497 16.4813665,27.6319351 L16.1007501,27.8006216 C16.1007501,27.8006216 16.9802216,23.5058502 24.6789155,26.0179776 C25.0851026,26.117591 25.5089109,26.2325506 25.9534161,26.3662972 L25.9534161,26.3662972 Z" id="L-copy" fill="#3B434F"></path>
                    <path d="M47.7972265,20.0823803 L51.1920059,20.0823803 L51.1920059,27.4050331 L47.7972265,27.4050331 L47.7972265,20.0823803 L47.7972265,20.0823803 Z" id="Rectangle-19" fill="#3B434F"></path>
                    <path d="M10.5667062,26.7294127 C10.5667062,26.7294127 14.1372134,20.5011661 20.9698715,21.4918682 C20.9698715,21.4918682 21.2401348,22.9105428 22.709349,24.4355453 C22.709349,24.4355453 24.3179325,20.9083138 29.278034,19.9146523 C33.2184332,19.1252719 36.9590951,16.2795269 36.9590951,16.2795269 C36.9590951,16.2795269 37.5409866,21.9347677 45.218845,23.509569 C45.218845,23.509569 51.9460699,24.2631034 51.457835,20.8954818 C50.9696001,17.5278601 47.2363556,2.87018341 29.3595383,5.08910114 C11.482727,7.30801373 7.2841877,13.1893917 10.4079119,26.5819069" id="Shape-15" fill="#3B444F"></path>
                    <path d="M11.7088212,28.2001958 C11.7065898,28.200311 11.5103615,28.0583415 11.139816,27.9526473 C10.9546185,27.8999154 10.7244485,27.8565378 10.4620998,27.8458428 C10.3965805,27.8431716 10.3291476,27.8425378 10.2601481,27.8443133 C10.1911484,27.8460889 10.1205763,27.8502685 10.0488422,27.8572083 C9.90539142,27.8710931 9.75723454,27.8960449 9.60814675,27.9348971 C9.0111892,28.0903169 8.40221805,28.4681918 8.04457069,29.2481289 C7.86503879,29.6381185 7.7466035,30.1286693 7.71529212,30.7424341 C7.70745836,30.8958791 7.70506496,31.0570234 7.70849896,31.2262232 C7.71193883,31.3954229 7.72121216,31.5726779 7.73670009,31.7583446 C7.76765892,32.1296622 7.8235639,32.5346312 7.90686054,32.9759174 C7.90503944,32.9754827 7.82917174,34.3094396 8.35556877,35.842246 C8.85043487,37.3408668 10.0387655,39.1817892 12.2328366,39.7078507 C11.9804951,35.9013206 11.9726558,32.0234391 11.7088212,28.2001958 L11.7088212,28.2001958 L11.7088212,28.2001958 Z" id="Shape-11-copy" fill="#F7FBFB"></path>
                    <path d="M12.1484472,28.3536513 C12.1484472,28.3536513 8.32621148,27.2807089 8.46072463,30.8406333 C8.46072463,30.8406333 9.02978757,36.0026362 9.27690254,36.4783804 C9.27690254,36.4783804 10.7780004,39.4838765 13.2553485,39.6170732 C15.676595,39.747253 13.2553485,39.6170732 13.2553485,39.6170732 L13.285417,40.5858142 C13.285417,40.5858142 8.93118201,40.0800378 8.09019074,35.5341093 L7.42641298,31.404353 C7.42641298,31.404353 6.91101773,25.9390267 11.9103798,27.3286273 C16.7807732,28.6823823 11.9103798,27.3286273 11.9103798,27.3286273 L12.1484472,28.3536513" id="Shape-3" fill="#3B434F"></path>
                    <path d="M10.8868562,35.5254254 C10.8868562,35.5254254 10.6729487,35.6718784 10.4891908,35.6718784 C10.3054328,35.6718784 10.0941328,35.5254254 10.0941328,35.5254254 L9.69967611,31.9242604 C9.69967611,31.9242604 10.2439257,30.1507823 12.5533796,31.0880142 L12.6079722,32.1177153 C12.6079722,32.1177153 10.581778,31.4667062 10.6236749,32.2773616 C10.6640052,33.0576602 10.8868562,35.5254254 10.8868562,35.5254254 L10.8868562,35.5254254 Z" id="Shape-4" fill="#3B434F"></path>
                    <path d="M49.2193117,28.2086022 C49.2215547,28.2087173 49.4186444,28.0668472 49.7908086,27.9612211 C49.9768213,27.908526 50.2079973,27.8651799 50.4714964,27.8544899 C50.5372989,27.8518241 50.6050268,27.8511903 50.6743328,27.8529659 C50.743633,27.854736 50.8145114,27.8589156 50.8865635,27.8658503 C51.0306387,27.8797246 51.179449,27.9046606 51.32919,27.9434868 C51.9287607,28.0988017 52.5403971,28.47642 52.8996111,29.2558282 C53.0799292,29.6455505 53.1988849,30.1357661 53.2303292,30.7491172 C53.2381976,30.9024575 53.2406026,31.0634919 53.2371569,31.2325764 C53.2336998,31.4016608 53.2243861,31.5787955 53.2088286,31.7643364 C53.177737,32.1354026 53.1215833,32.5400991 53.0379225,32.9810816 C53.0397552,32.9806469 53.1159523,34.3137029 52.5872485,35.8454672 C52.0902203,37.3430719 50.8966808,39.1827424 48.6930013,39.7084478 C48.9464468,35.9044998 48.9543209,32.0292527 49.2193117,28.2086022 L49.2193117,28.2086022 L49.2193117,28.2086022 Z" id="Shape-11-copy_1" fill="#F7FBFB"></path>
                    <path d="M48.7777606,28.3619581 C48.7777606,28.3619581 52.6167387,27.2897437 52.4816361,30.8472482 C52.4816361,30.8472482 51.9100814,36.0057474 51.6618794,36.4811669 C51.6618794,36.4811669 50.1542083,39.4846255 47.6660145,39.6177331 C45.2341596,39.747824 47.6660145,39.6177331 47.6660145,39.6177331 L47.6358131,40.5858142 C47.6358131,40.5858142 52.0091147,40.0803834 52.8537887,35.5375399 L53.5204744,31.4105856 C53.5204744,31.4105856 54.0381302,25.9489675 49.0168685,27.3376255 C44.1251481,28.6904638 49.0168685,27.3376255 49.0168685,27.3376255 L48.7777606,28.3619581" id="Shape-3_1" fill="#3B434F"></path>
                    <path d="M50.0448785,35.5288613 C50.0448785,35.5288613 50.2597224,35.6752146 50.444284,35.6752146 C50.6288455,35.6752146 50.8410706,35.5288613 50.8410706,35.5288613 L51.2372559,31.9301422 C51.2372559,31.9301422 50.6906243,30.1578688 48.3710533,31.0944616 L48.3162236,32.1234661 C48.3162236,32.1234661 50.3512921,31.472897 50.3092101,32.2830026 C50.2687065,33.0627721 50.0448785,35.5288613 50.0448785,35.5288613 L50.0448785,35.5288613 Z" id="Shape-4_1" fill="#3B434F"></path>
                    <path d="M31.9953224,35.2402764 L32.2782178,35.2402764 C32.8631099,35.9598923 33.1010675,37.0657478 33.4098108,38.0228823 C33.505491,38.3195017 33.4126668,38.8383251 33.3289828,39.048053 C33.0225114,39.8161637 32.0601767,39.8023785 31.2678697,40.1464502 C31.0550839,40.2388618 30.8968039,40.3983668 30.6212451,40.4393612 C30.4415974,40.2959985 30.2246896,40.2678414 30.1362708,40.0366131 C29.9179753,39.7642908 30.1993213,39.5942322 30.419172,39.487412 C30.8181785,39.2935485 32.0499092,39.1024766 32.1973896,38.7551471 C32.3798643,38.5670921 32.2585324,38.001686 32.1973896,37.803203 C32.0407979,37.2948233 31.9656354,36.8704021 31.7528381,36.4119 C31.6114859,36.1073509 31.3633127,35.7862407 31.510354,35.4233399 C31.6322002,35.3759399 31.8955432,35.3220453 31.9953224,35.2402764 L31.9953224,35.2402764 Z" id="new_vector_shape_done" fill="#3B434F"></path>
                </g>
            </g>
        </g>
    </g>
</svg>