<?xml version="1.0" encoding="UTF-8" standalone="no"?>
<svg width="62px" height="86px" viewBox="0 0 62 86" version="1.1" xmlns="http://www.w3.org/2000/svg" xmlns:xlink="http://www.w3.org/1999/xlink">
    <!-- Generator: Sketch 47 (45396) - http://www.bohemiancoding.com/sketch -->
    <title>users-10</title>
    <desc>Created with Sketch.</desc>
    <defs>
        <linearGradient x1="50%" y1="0%" x2="50%" y2="100%" id="linearGradient-1">
            <stop stop-color="#F5515F" offset="0%"></stop>
            <stop stop-color="#4B3A3C" offset="74.2506378%"></stop>
        </linearGradient>
        <filter x="-18.3%" y="-308.7%" width="136.6%" height="717.5%" filterUnits="objectBoundingBox" id="filter-2">
            <feGaussianBlur stdDeviation="-1.50402435 -2.59574859" in="SourceGraphic"></feGaussianBlur>
        </filter>
    </defs>
    <g id="WHIRLWORK-WEB" stroke="none" stroke-width="1" fill="none" fill-rule="evenodd">
        <g id="Desktop-HD-Copy-23" transform="translate(-435.000000, -1412.000000)">
            <g id="users-10" transform="translate(411.000000, 1390.000000)">
                <g id="svg4155">
                    <path d="M25.2019682,88.0926373 C25.2019682,88.0926373 23.0800443,73.1466569 41.3586029,71.4792135 L49.1801376,71.4792135 L49.1801376,68.5841636 C49.1801376,68.5841636 54.6820586,70.4829345 60.253325,68.7959962 L60.4290896,71.4792135 L69.5688593,71.4792135 C69.5688593,71.4792135 85.4852178,72.7558806 84.5226042,88.0926373 L25.2019682,88.0926373 L25.2019682,88.0926373 Z" id="body-bg-flat" fill="#F5A623"></path>
                    <path d="M84.370581,88.3552222 L84.370581,88.3552222 L25.7674801,88.3552222 L25.7674801,88.3552222 L24.6309373,88.3552222 L24.9146361,84.4611708 C25.4685634,76.8579918 32.9243373,71.0555485 41.4564422,71.0555485 L47.9497847,71.0555485 L47.9497847,71.8322679 L41.974408,71.8322679 C33.7512146,71.8322679 26.5653797,77.4174393 26.0315043,84.7359172 L25.8344432,87.4372812 L84.2157356,87.4372812 L84.106557,84.7359172 C83.5726816,77.4174393 76.3868467,71.8322679 68.1636469,71.8322679 L60.1654427,71.8322679 L60.1654427,71.0555485 L68.629497,71.0555485 C77.1616018,71.0555485 84.6173759,76.8579918 85.1713029,84.4611708 L85.4550018,88.3552222 L84.370581,88.3552222 L84.370581,88.3552222 Z" id="Rounded-Rectangle-13-copy" fill="#3B434F"></path>
                    <path d="M50.058961,68.2574932 L50.058961,72.6124923 C50.058961,74.8723981 52.3410479,76.7044216 55.1561429,76.7044216 C57.9712379,76.7044216 60.253325,74.8723981 60.253325,72.6124923 L60.253325,68.3473412 C60.5491366,68.2749982 60.8421637,68.1964226 61.1321483,68.1115341 L61.1321483,72.6421335 C61.1321483,75.3146389 58.4369306,77.481141 55.1122049,77.481141 C51.7874791,77.481141 49.0922553,75.3146389 49.0922553,72.6421335 L49.0922553,67.9774082 C49.4106582,68.0785645 49.7331534,68.1716046 50.058961,68.2574932 L50.058961,68.2574932 Z" id="neck-copy-5" fill="#3B434F"></path>
                    <path d="M49.0483172,76.6338108 C49.3637973,76.6338108 49.6195492,76.8392949 49.6195492,77.0927787 L49.6195492,84.0126472 C49.6195492,84.2661311 49.3637973,84.4716203 49.0483172,84.4716203 C48.7328309,84.4716203 48.4770788,84.2661311 48.4770788,84.0126472 L48.4770788,77.0927787 C48.4770788,76.8392949 48.7328309,76.6338108 49.0483172,76.6338108 L49.0483172,76.6338108 Z" id="Rounded-Rectangle-14" fill="#3B434F"></path>
                    <path d="M61.044266,76.5632 C61.3840157,76.5632 61.6594424,76.7844921 61.6594424,77.0574758 L61.6594424,81.3647378 C61.6594424,81.6377217 61.3840157,81.8590189 61.044266,81.8590189 C60.7045101,81.8590189 60.4290896,81.6377217 60.4290896,81.3647378 L60.4290896,77.0574758 C60.4290896,76.7844921 60.7045101,76.5632 61.044266,76.5632 L61.044266,76.5632 Z" id="Rounded-Rectangle-15" fill="#3B434F"></path>
                    <path d="M49.0483172,83.9773443 C49.2181919,83.9773443 49.3559023,84.0879903 49.3559023,84.2244848 L49.3559023,85.9897561 C49.3559023,86.1262456 49.2181919,86.2368916 49.0483172,86.2368916 C48.8784361,86.2368916 48.7407259,86.1262456 48.7407259,85.9897561 L48.7407259,84.2244848 C48.7407259,84.0879903 48.8784361,83.9773443 49.0483172,83.9773443 L49.0483172,83.9773443 Z" id="Rounded-Rectangle-16" fill="#3B434F"></path>
                    <path d="M61.088204,81.3647378 C61.2580852,81.3647378 61.3957953,81.4753889 61.3957953,81.6118782 L61.3957953,83.3771496 C61.3957953,83.513644 61.2580852,83.6242901 61.088204,83.6242901 C60.9183293,83.6242901 60.7806189,83.513644 60.7806189,83.3771496 L60.7806189,81.6118782 C60.7806189,81.4753889 60.9183293,81.3647378 61.088204,81.3647378 L61.088204,81.3647378 Z" id="Rounded-Rectangle-16-copy" fill="#3B434F"></path>
                    <path d="M45.7511109,66.5198127 L40.1849297,67.5467432 C40.1849297,67.5467432 33.3686142,68.7872942 37.9035151,72.4784018 C42.4384225,76.1695095 54.1015549,76.8213707 54.1015549,76.8213707 C54.1015549,76.8213707 51.0178346,75.6478094 49.7074317,73.9969316 L49.2680198,68.0656151 L45.7511109,66.5198127 L45.7511109,66.5198127 Z" id="Shape-1-copy" fill="#D38A10"></path>
                    <path d="M54.2773196,77.1744249 C53.9319504,77.5256459 44.2202823,77.2841518 37.4917737,72.5847146 C32.6199392,69.1820402 39.9524855,67.2182849 39.9524855,67.2182849 L45.3133147,66.2297329 L49.9710785,68.1362259 L50.3226079,73.8557099 C52.2833755,76.3259382 54.8333147,76.6090027 54.2773196,77.1744249 L54.2773196,77.1744249 Z M49.4437846,74.1381533 L48.9164905,68.1362259 L46.1042557,66.8652305 L40.7434267,67.9243933 C40.7434267,67.9243933 34.2500966,68.9942379 38.3705972,72.0904386 C42.8174461,75.4318454 51.0438453,76.3285694 51.9044965,76.2564839 C52.79652,76.1817619 51.404552,76.6083866 49.4437846,74.1381533 L49.4437846,74.1381533 Z" id="Shape-1-copy-2" fill="#3B434F"></path>
                    <path d="M64.5552915,66.6861757 L70.1247727,67.716182 C70.1247727,67.716182 76.9451237,68.9604451 72.4075387,72.6626083 C67.869941,76.3647713 56.1998942,77.018582 56.1998942,77.018582 C56.1998942,77.018582 59.2854501,75.8415106 60.5966199,74.1856884 L61.0362956,68.2366093 L64.5552915,66.6861757 L64.5552915,66.6861757 Z" id="Shape-1-copy-4" fill="#D88E15"></path>
                    <path d="M56.0240289,77.3020811 C56.3695995,77.6543575 66.0870253,77.4121413 72.8195189,72.6986283 C77.6942451,69.2857621 70.3573552,67.3161279 70.3573552,67.3161279 L64.9933456,66.3246164 L60.3328221,68.2368165 L59.9810789,73.9734317 C58.0191549,76.4510589 55.467707,76.7349669 56.0240289,77.3020811 L56.0240289,77.3020811 Z M60.8604241,74.2567185 L61.3880324,68.2368165 L64.2019393,66.9620181 L69.5659427,68.0243525 C69.5659427,68.0243525 76.063126,69.0973991 71.9401739,72.2028725 C67.4906912,75.5542896 59.2594141,76.4536952 58.3982602,76.3813926 C57.5057023,76.3064483 58.8985,76.7343458 60.8604241,74.2567185 L60.8604241,74.2567185 Z" id="Shape-1-copy-6" fill="#3B434F"></path>
                    <path d="M55.5244242,23.9580602 C66.4571105,23.9580602 75.0862875,32.1667826 74.8057065,42.0297615 L74.5074936,52.5123643 C74.2431612,61.8042694 65.7470931,69.1490504 55.5244242,69.1490504 C45.301755,69.1490504 36.8056869,61.8042694 36.5413547,52.5123643 L36.2431419,42.0297615 C35.962567,32.1667826 44.5917379,23.9580602 55.5244242,23.9580602 L55.5244242,23.9580602 Z" id="2-copy-5" fill="#FFFFFF"></path>
                    <ellipse id="Oval-20" stroke="#000000" fill="#F1F9E9" cx="44.7429618" cy="46.1551894" rx="2.45840449" ry="2.42922049"></ellipse>
                    <ellipse id="Oval-20-Copy" fill="#4A4A4A" cx="44.4971213" cy="45.9122673" rx="1.22920225" ry="1.21461025"></ellipse>
                    <ellipse id="Oval-20-Copy-5" stroke="#000000" fill="#F0F8E7" cx="65.3935595" cy="46.1551894" rx="2.45840449" ry="2.42922049"></ellipse>
                    <ellipse id="Oval-20-Copy-4" fill="#4A4A4A" cx="65.147719" cy="45.9122673" rx="1.22920225" ry="1.21461025"></ellipse>
                    <path d="M75.6841149,41.7047625 L75.3716395,52.6132174 C75.0946665,62.282606 66.1921748,69.9257698 55.4804987,69.9257698 C44.7688161,69.9257698 35.8663308,62.282606 35.5893514,52.6132174 L35.2768699,41.7047625 C34.9828748,31.4410983 44.0248367,22.8988974 55.4804987,22.8988974 C66.9361606,22.8988974 75.9781162,31.4410983 75.6841149,41.7047625 L75.6841149,41.7047625 Z M55.4366047,24.0286712 C44.6533767,24.0286712 36.1421724,32.1732623 36.4189064,41.9591859 L36.7130462,52.359895 C36.9737639,61.5792046 45.3536886,68.866607 55.4366047,68.866607 C65.5195206,68.866607 73.8994389,61.5792046 74.1601568,52.359895 L74.4542902,41.9591859 C74.7310368,32.1732623 66.2198325,24.0286712 55.4366047,24.0286712 L55.4366047,24.0286712 Z" id="2-line" fill="#3B434F"></path>
                    <path d="M73.9199622,58.7877098 C73.6599799,59.7756254 70.243946,68.7335823 70.8620075,64.8559199 C71.4800629,60.9782572 64.9259676,68.3793966 64.9259676,68.3793966 C63.7148682,69.3792466 58.8100457,71.7071269 58.8100457,71.7071269 L58.8100457,70.7283831 L55.2124452,71.9028787 L53.593527,70.7283831 L53.413645,71.9028787 C52.9319107,71.329396 43.1604895,66.0304155 43.1604895,66.0304155 C43.1604895,66.0304155 44.8378726,68.428947 43.5202533,67.2049062 C43.4732102,67.1612042 43.4249349,67.1143862 43.3755911,67.0647298 C42.0427351,65.7235125 39.9226466,62.3111867 39.9226466,62.3111867 L39.5628892,64.660173 C36.3837938,59.6948782 36.5049345,53.502492 36.5049345,53.502492 L35.9703112,40.5705496 L37.4093539,40.5705496 L37.943971,49.7832632 L40.2824104,52.9152416 C41.794526,54.6913561 45.8586868,53.8939854 45.8586868,53.8939854 C57.6037299,60.4417845 65.1058494,53.502492 65.1058494,53.502492 C65.1058494,53.502492 70.1939169,54.4096654 71.7614046,53.8939854 C73.3288859,53.3783105 73.5551823,40.5523425 73.5551823,40.5523425 L74.8143432,40.5523425 C74.8143432,40.5523425 74.1799446,57.7997892 73.9199622,58.7877098 L73.9199622,58.7877098 Z M65.4850492,59.7809234 C65.2268833,57.2916194 63.3415962,57.5026993 63.3415962,57.5026993 C59.9899984,58.2879086 57.3590724,58.7241191 55.3036402,58.9458153 L55.3036402,58.9295426 C53.2626088,58.7096545 50.6501066,58.2770249 47.3219928,57.4982499 C47.3219928,57.4982499 45.449906,57.2888972 45.1935504,59.7578022 C45.1935504,59.7578022 44.4418017,61.6665022 46.9672513,62.7234579 L50.1599116,64.1356801 C50.1599116,64.1356801 52.3417017,64.6862235 52.2883539,62.5822363 C52.2883539,62.5822363 52.0662877,62.2840706 53.3525719,62.0173494 L55.3036402,62.0173494 L55.3036402,62.0638139 L57.2684745,62.0638139 C58.5638292,62.3327422 58.3402042,62.6438775 58.3402042,62.6438775 C58.2864791,64.7652535 60.4836507,64.2101545 60.4836507,64.2101545 L63.6988331,62.7757608 C66.2420907,61.7100677 65.4850492,59.7809234 65.4850492,59.7809234 L65.4850492,59.7809234 Z" id="Shape-1" fill="#4A4A4A"></path>
                    <path d="M64.9715086,58.8540783 C63.3741317,59.9684882 59.7661283,61.0287924 55.5680982,61.0287924 C51.3700616,61.0287924 47.7620582,59.9684882 46.1646752,58.8540783 C46.1646752,58.8540783 46.0012433,58.4927563 46.2410293,58.3000954 C46.485253,58.103869 46.8677339,58.1465758 46.8677339,58.1465758 C48.4634386,59.2617435 51.3684587,60.1814674 55.5680982,60.1814674 C59.7677312,60.1814674 62.6727513,59.2617435 64.268456,58.1465758 C64.268456,58.1465758 64.6587817,58.0300762 64.8483939,58.1824242 C65.213595,58.4758524 64.9715086,58.8540783 64.9715086,58.8540783 L64.9715086,58.8540783 Z" id="usta" fill="#3B434F"></path>
                    <path d="M52.6679747,62.7234579 L58.2924507,62.7234579 L58.2924507,63.4295665 L52.6679747,63.4295665 L52.6679747,62.7234579 L52.6679747,62.7234579 Z" id="-" fill="#3B434F"></path>
                    <path d="M35.2550076,43.2954941 C35.2525814,43.2956052 35.0392273,43.1587068 34.6363425,43.0567879 C34.4349819,43.0059396 34.1847238,42.9641114 33.8994787,42.9537985 C33.8282412,42.9512227 33.7549232,42.9506116 33.6799017,42.9523236 C33.6048801,42.9540358 33.5281488,42.9580661 33.4501541,42.964758 C33.2941837,42.9781468 33.1330965,43.0022074 32.9709971,43.0396718 C32.3219401,43.18954 31.6598211,43.5539174 31.2709601,44.3059955 C31.0757596,44.6820547 30.9469879,45.1550832 30.9129438,45.7469246 C30.9044263,45.8948886 30.9018241,46.0502769 30.9055578,46.2134329 C30.9092978,46.3765888 30.9193805,46.5475124 30.9362201,46.7265471 C30.9698809,47.0846014 31.030665,47.475105 31.1212313,47.9006287 C31.1192513,47.9002095 31.0367622,49.1865179 31.6091005,50.664573 C32.147156,52.1096636 33.4391979,53.8848289 35.8247563,54.3920997 C35.5503918,50.7215375 35.5418683,46.9821725 35.2550076,43.2954941 L35.2550076,43.2954941 L35.2550076,43.2954941 Z" id="Shape-11-copy" fill="#FFFFFF"></path>
                    <path d="M35.5270275,43.4434683 C35.5270275,43.4434683 31.3712066,42.4088509 31.5174594,45.8416161 C31.5174594,45.8416161 32.1361872,50.8192341 32.4048691,51.2779849 C32.4048691,51.2779849 34.0369751,54.1761257 36.7305334,54.3045647 C39.3630938,54.4300945 36.7305334,54.3045647 36.7305334,54.3045647 L36.7632261,55.2387027 C36.7632261,55.2387027 32.0289759,54.7509923 31.1145872,50.3674428 L30.3928783,46.3852 C30.3928783,46.3852 29.832502,41.1150931 35.2681827,42.4550578 C40.5636391,43.7604571 35.2681827,42.4550578 35.2681827,42.4550578 L35.5270275,43.4434683" id="Shape-3" fill="#3B434F"></path>
                    <path d="M34.1553313,50.3590691 C34.1553313,50.3590691 33.922755,50.5002909 33.7229596,50.5002909 C33.5231642,50.5002909 33.293423,50.3590691 33.293423,50.3590691 L32.8645402,46.8865365 C32.8645402,46.8865365 33.4562891,45.1764063 35.9673003,46.0801607 L36.0266574,47.0730812 C36.0266574,47.0730812 33.8236274,46.4453259 33.8691809,47.227025 C33.913031,47.9794517 34.1553313,50.3590691 34.1553313,50.3590691 L34.1553313,50.3590691 Z" id="Shape-4" fill="#3B434F"></path>
                    <path d="M75.6272721,43.3036002 C75.6297109,43.3037113 75.8440015,43.1669087 76.2486463,43.0650555 C76.4508932,43.0142426 76.7022451,42.9724449 76.9887411,42.9621367 C77.0602865,42.9595661 77.1339252,42.958955 77.20928,42.9606672 C77.2846283,42.9623741 77.3616926,42.9664043 77.4400331,42.9730913 C77.5966824,42.98647 77.7584801,43.0105154 77.9212897,43.0479547 C78.5731878,43.1977217 79.2382047,43.5618517 79.6287691,44.3134197 C79.8248244,44.6892213 79.954162,45.1619266 79.9883506,45.7533689 C79.9969058,45.901232 79.9995206,46.0565143 79.9957741,46.2195592 C79.9920153,46.3826039 79.9818888,46.5534114 79.9649736,46.7323249 C79.9311684,47.0901367 79.8701139,47.4803777 79.7791517,47.9056084 C79.7811443,47.9051892 79.8639915,49.1906289 79.2891451,50.6676792 C78.7487388,52.1117899 77.4510334,53.8857481 75.055028,54.3926754 C75.3305929,50.7246031 75.3391543,46.9877785 75.6272721,43.3036002 L75.6272721,43.3036002 L75.6272721,43.3036002 Z" id="Shape-11-copy_1" fill="#FFFFFF"></path>
                    <path d="M75.3531591,43.4514784 C75.3531591,43.4514784 79.5271836,42.4175631 79.3802898,45.8479948 C79.3802898,45.8479948 78.7588528,50.8222342 78.488989,51.2806719 C78.488989,51.2806719 76.8497361,54.176848 74.1443856,54.3052011 C71.5002908,54.4306451 74.1443856,54.3052011 74.1443856,54.3052011 L74.1115483,55.2387027 C74.1115483,55.2387027 78.8665292,54.7513257 79.784922,50.3707509 L80.5097926,46.3912099 C80.5097926,46.3912099 81.0726268,41.1246789 75.6131351,42.4637345 C70.2944905,43.7682499 75.6131351,42.4637345 75.6131351,42.4637345 L75.3531591,43.4514784" id="Shape-3_1" fill="#3B434F"></path>
                    <path d="M76.7308646,50.3623823 C76.7308646,50.3623823 76.964459,50.503508 77.1651281,50.503508 C77.3657973,50.503508 77.5965442,50.3623823 77.5965442,50.3623823 L78.0273066,46.8922081 C78.0273066,46.8922081 77.4329678,45.1832398 74.9109565,46.0863778 L74.8513415,47.0786266 C74.8513415,47.0786266 77.0640204,46.4512956 77.0182657,47.2324645 C76.9742271,47.9843809 76.7308646,50.3623823 76.7308646,50.3623823 L76.7308646,50.3623823 Z" id="Shape-4_1" fill="#3B434F"></path>
                    <path d="M57.1060359,50.0841056 L57.413621,50.0841056 C58.0495595,50.7780171 58.3082848,51.8443717 58.6439736,52.7673178 C58.7480043,53.053342 58.6470789,53.5536332 58.5560914,53.7558697 C58.2228727,54.4965438 57.1765504,54.483251 56.3150949,54.8150325 C56.0837383,54.9041433 55.9116443,55.0579508 55.6120362,55.0974809 C55.4167098,54.959239 55.1808714,54.9320877 55.0847359,54.7091188 C54.8473887,54.4465238 55.1532891,54.2825396 55.3923272,54.1795349 C55.8261569,53.9925962 57.1653868,53.8083493 57.3257385,53.4734264 C57.5241387,53.2920886 57.3922176,52.7468786 57.3257385,52.5554853 C57.1554803,52.0652648 57.0737581,51.6560038 56.8423888,51.2138792 C56.6887002,50.9202085 56.4188677,50.6105682 56.578742,50.2606301 C56.7112223,50.2149232 56.9975485,50.1629537 57.1060359,50.0841056 L57.1060359,50.0841056 Z" id="new_vector_shape_done" fill="#3B434F"></path>
                    <path d="M66.1139851,49.3073862 C67.327385,49.3073862 68.3110437,50.0977266 68.3110437,51.0726574 C68.3110437,52.0475882 67.327385,52.8379287 66.1139851,52.8379287 C64.900579,52.8379287 63.9169267,52.0475882 63.9169267,51.0726574 C63.9169267,50.0977266 64.900579,49.3073862 66.1139851,49.3073862 L66.1139851,49.3073862 Z" id="Ellipse-3" fill="#EDF1F1"></path>
                    <path d="M44.8464401,49.3073862 C46.05984,49.3073862 47.0434987,50.0977266 47.0434987,51.0726574 C47.0434987,52.0475882 46.05984,52.8379287 44.8464401,52.8379287 C43.633034,52.8379287 42.6493817,52.0475882 42.6493817,51.0726574 C42.6493817,50.0977266 43.633034,49.3073862 44.8464401,49.3073862 L44.8464401,49.3073862 Z" id="Ellipse-3-copy" fill="#EDF1F1"></path>
                    <path d="M74.6234547,42.5617695 C74.5045706,43.3776402 74.4001251,44.3760256 74.1805607,45.2686383 C73.5239982,47.9378154 70.6694598,50.4107912 65.7953245,50.6925629 C60.9211956,50.9743345 56.7728611,49.0028064 56.5297627,46.2890286 C56.4885464,45.828904 56.3782864,45.3125574 56.2936727,44.8105543 C55.6038959,44.5032978 54.8929548,44.5025958 54.1608555,44.8084633 C54.0753555,45.32183 53.9609406,45.8517575 53.9187437,46.3228871 C53.6748846,49.0456599 49.5134695,51.0237232 44.6239652,50.7410172 C39.7344612,50.4583111 36.8709212,47.9771435 36.2122846,45.2991181 C35.9920288,44.4035456 35.8872564,43.4018524 35.7679951,42.5832745 L35.049492,42.5417292 L35.1504174,41.4148698 L35.3257297,41.4250061 L39.7724151,41.6821112 L43.5259044,41.8991357 L47.2863709,42.1165591 L53.1435991,42.4552195 C53.5475522,42.4962698 53.8161589,42.6354663 53.989139,42.8432635 C54.8303165,43.1391159 55.6472558,43.1402977 56.4399504,42.8467584 C56.6113654,42.6255926 56.8835862,42.4766942 57.3024684,42.4341337 L63.1412853,42.0965946 L66.8899344,41.8798882 L70.6316251,41.6635809 L75.064331,41.4073244 L75.2390898,41.3972233 L75.3397011,42.5203607 L74.6234547,42.5617695 L74.6234547,42.5617695 Z M51.5707874,43.7794216 L40.0915096,43.1157019 C38.5901113,43.0117023 38.0579331,44.3672982 37.9653993,45.4004814 C37.7703119,47.5786955 40.7909916,49.5282894 44.7122751,49.7550158 C48.6335587,49.9817372 51.9705417,48.3997431 52.165629,46.2215238 C52.258163,45.1883458 52.6781766,44.5502673 51.5707874,43.7794216 L51.5707874,43.7794216 Z M72.4329587,45.3696683 C72.3407138,44.3398993 71.8102077,42.988778 70.3135302,43.0924342 L58.8703393,43.7539621 C57.7664326,44.5222674 58.1851263,45.1582298 58.2773647,46.1879986 C58.4718423,48.3590209 61.7983342,49.9357929 65.7072912,49.709814 C69.6162482,49.4838401 72.6274362,47.5406856 72.4329587,45.3696683 L72.4329587,45.3696683 Z" id="glasses" fill="url(#linearGradient-1)"></path>
                    <path d="M36.3280824,47.8951641 C36.3280824,47.8951641 38.7729225,39.2901351 40.9003904,36.9363508 C43.0278582,34.5825667 44.8688742,34.0195839 45.8244163,33.9475841 C46.7799585,33.8755894 54.3047573,35.6628151 64.6412189,33.6154944 C64.6412189,33.6154944 68.7168638,33.484803 70.4445334,36.7703111 C70.4445334,36.7703111 74.0870588,42.0061655 74.6651235,47.2309947 L75.3685532,47.2309947 C75.3685532,47.2309947 76.8592277,38.0720588 76.2478541,32.6192404 C75.6364619,27.1664272 66.751514,24.4831542 66.751514,24.4831542 L68.6859501,23.3208504 C68.6859501,23.3208504 64.1696301,22.199092 62.355065,22.8227312 L63.7619241,20.4981286 C63.7619241,20.4981286 54.6475366,20.5127244 49.5174295,23.8189799 L49.6932884,22.1585517 C49.6932884,22.1585517 31.6108292,24.3865133 35.4487939,47.5630795 L36.3280824,47.8951641 L36.3280824,47.8951641 Z" id="Shape-7"></path>
                </g>
                <ellipse id="Oval-21-Copy-2" fill="#4A4A4A" opacity="0.554570896" filter="url(#filter-2)" cx="56.0516224" cy="98.626352" rx="24.5840449" ry="1.4575323"></ellipse>
            </g>
        </g>
    </g>
</svg>