<?xml version="1.0" encoding="UTF-8" standalone="no"?>
<svg width="51px" height="60px" viewBox="0 0 51 60" version="1.1" xmlns="http://www.w3.org/2000/svg" xmlns:xlink="http://www.w3.org/1999/xlink">
    <!-- Generator: Sketch 47 (45396) - http://www.bohemiancoding.com/sketch -->
    <title>users-7</title>
    <desc>Created with Sketch.</desc>
    <defs></defs>
    <g id="WHIRLWORK-WEB" stroke="none" stroke-width="1" fill="none" fill-rule="evenodd">
        <g id="Desktop-HD-Copy-4" transform="translate(-887.000000, -2190.000000)">
            <g id="users-7" transform="translate(887.000000, 2190.000000)">
                <g id="svg5448">
                    <path d="M0.578916334,59.4520548 C0.578916334,59.4520548 -0.560828564,47.1249014 14.0318922,45.9744304 L20.574594,45.9744304 L20.574594,43.5780815 C20.574594,43.5780815 25.1769426,45.1497703 29.8372984,43.7534238 L29.9843252,45.9744304 L37.6297287,45.9744304 C37.6297287,45.9744304 50.7218098,46.3832322 50.1270246,59.5689497 L0.578916334,59.4520548 L0.578916334,59.4520548 Z" id="body-bg-flat-copy" fill="#FFFFFF"></path>
                    <path d="M50.082562,59.9433795 L50.082562,59.9433795 L1.06115752,59.9433795 L1.06115752,59.9433795 L0.110441017,59.9433795 L0.347754699,56.720117 C0.811113993,50.4266608 7.04785747,45.6237459 14.1849503,45.6237459 L19.6166216,45.6237459 L19.6166216,46.2666677 L14.6182279,46.2666677 C7.73953911,46.2666677 1.72859917,50.8897379 1.28201319,56.9475356 L1.11717189,59.1835629 L49.9530341,59.1835629 L49.8617064,56.9475356 C49.4151204,50.8897379 43.4041804,46.2666677 36.5254863,46.2666677 L29.8350007,46.2666677 L29.8350007,45.6237459 L36.9151692,45.6237459 C44.0522619,45.6237459 50.2890056,50.4266608 50.7523647,56.720117 L50.9896784,59.9433795 L50.082562,59.9433795 L50.082562,59.9433795 Z" id="Rounded-Rectangle-13" fill="#3B434F"></path>
                    <path d="M24.7625677,52.8712316 C20.8243326,52.8712316 17.6317533,50.3329552 17.6317533,47.2018266 C17.6317533,46.6539566 17.7314467,46.1248904 17.9138291,45.6237459 L17.9258124,45.6237459 L18.6825049,45.6237459 L19.9841887,45.6237459 L19.9841887,46.2666677 L18.476929,46.2666677 C18.4055609,46.569841 18.3668878,46.8821529 18.3668878,47.2018266 C18.3668878,50.0101586 21.2303365,52.2867574 24.7625677,52.2867574 C28.2948043,52.2867574 31.1582426,50.0101586 31.1582426,47.2018266 C31.1582426,46.8821529 31.1195746,46.569841 31.0482011,46.2666677 L29.5409469,46.2666677 L29.5409469,45.6237459 L30.8426254,45.6237459 L31.5993233,45.6237459 L31.6113012,45.6237459 C31.7936836,46.1248904 31.8933771,46.6539566 31.8933771,47.2018266 C31.8933771,50.3329552 28.7008082,52.8712316 24.7625677,52.8712316 L24.7625677,52.8712316 Z" id="Ellipse-4" fill="#3B434F"></path>
                    <path d="M20.5722963,43.3076833 L20.5722963,46.9124907 C20.5722963,48.7831053 22.4812587,50.2995447 24.8360811,50.2995447 C27.1909038,50.2995447 29.0998662,48.7831053 29.0998662,46.9124907 L29.0998662,43.3820541 C29.3473122,43.3221729 29.5924288,43.2571327 29.8350007,43.1868671 L29.8350007,46.9370259 C29.8350007,49.1491658 27.5804552,50.9424664 24.7993272,50.9424664 C22.0181992,50.9424664 19.7636484,49.1491658 19.7636484,46.9370259 L19.7636484,43.0758458 C20.0299919,43.1595768 20.2997586,43.2365899 20.5722963,43.3076833 L20.5722963,43.3076833 Z" id="neck" fill="#3B434F"></path>
                    <path d="M25.0200936,6.6392663 C34.1652691,6.6392663 41.3835625,13.4339549 41.1488569,21.5979381 L40.8994023,30.2748088 C40.6782887,37.9660912 33.5713406,44.045661 25.0200936,44.045661 C16.4688464,44.045661 9.36189839,37.9660912 9.14078496,30.2748088 L8.89133035,21.5979381 C8.6566299,13.4339549 15.8749182,6.6392663 25.0200936,6.6392663 L25.0200936,6.6392663 Z" id="2-copy-5" fill="#FFFFFF"></path>
                    <path d="M41.8836442,21.3289234 L41.622259,30.3582889 C41.3905716,38.3620296 33.9436508,44.6885827 24.98335,44.6885827 C16.0230439,44.6885827 8.57612847,38.3620296 8.34443564,30.3582889 L8.08304531,21.3289234 C7.83711883,12.833277 15.4007062,5.76255479 24.98335,5.76255479 C34.5659938,5.76255479 42.1295759,12.833277 41.8836442,21.3289234 L41.8836442,21.3289234 Z M24.9466328,6.69771384 C15.926479,6.69771384 8.80686953,13.4393185 9.03835715,21.5395199 L9.28440458,30.1486038 C9.50249454,37.779796 16.5122888,43.8118712 24.9466328,43.8118712 C33.3809766,43.8118712 40.3907655,37.779796 40.6088556,30.1486038 L40.8548977,21.5395199 C41.0863958,13.4393185 33.9667864,6.69771384 24.9466328,6.69771384 L24.9466328,6.69771384 Z" id="2-line" fill="#3B434F"></path>
                    <path d="M41.4248647,22.8292219 L40.6897304,32.4146134 C40.6897304,32.4146134 37.4246577,43.4791252 24.8108108,44.7892281 L24.8108108,44.8054777 C24.786019,44.8030696 24.7620157,44.7998381 24.7372974,44.7973549 C24.7125791,44.7998381 24.6885759,44.8030696 24.6637838,44.8054777 L24.6637838,44.7892281 C12.0499423,43.4791252 8.78486441,32.4146134 8.78486441,32.4146134 L8.0497299,22.8292219 C11.3229947,34.3808234 14.0778376,35.1031996 14.0778376,35.1031996 C13.5203584,31.6003041 18.0475688,31.947034 18.0475688,31.947034 C20.80676,32.3175927 23.0032666,32.4966597 24.7372974,32.5636062 C26.4713334,32.4966597 28.6678347,32.3175927 31.427026,31.947034 C31.427026,31.947034 35.954231,31.6003041 35.3967571,35.1031996 C35.3967571,35.1031996 38.1516,34.3808234 41.4248647,22.8292219 L41.4248647,22.8292219 Z M33.2504653,36.2912866 C33.0364661,34.2307899 31.4736969,34.4055092 31.4736969,34.4055092 C28.695466,35.0554584 26.5146128,35.4165273 24.8108108,35.6000341 L24.8108108,35.5865645 C23.1189394,35.4045544 20.953361,35.0464495 18.1945956,34.4018262 C18.1945956,34.4018262 16.6427685,34.2285366 16.4302677,36.2721482 C16.4302677,36.2721482 15.8071256,38.3196352 17.9005419,39.1945199 L20.5470258,41.4155266 C20.5470258,41.4155266 22.3555743,41.8712334 22.3113537,40.1296788 C22.3113537,40.1296788 22.1272783,38.8308214 23.193515,38.6100456 L24.8108108,38.6100456 L24.8108108,38.648506 L26.4395167,38.648506 C27.5132724,38.8711088 27.3279036,40.1807016 27.3279036,40.1807016 C27.2833675,41.9366497 29.1046669,41.4771721 29.1046669,41.4771721 L31.7698223,39.237813 C33.8780035,38.3556962 33.2504653,36.2912866 33.2504653,36.2912866 L33.2504653,36.2912866 Z" id="1-copy-4" fill="#3B434F" opacity="0.058824"></path>
                    <path d="M32.9225653,35.5240997 C31.5863621,36.4465415 28.5682727,37.3241978 25.0566268,37.3241978 C21.5449757,37.3241978 18.5268863,36.4465415 17.1906779,35.5240997 C17.1906779,35.5240997 17.0539674,35.225019 17.2545479,35.0655459 C17.4588407,34.9031214 17.7787854,34.9384715 17.7787854,34.9384715 C19.11359,35.8615405 21.5436349,36.6228329 25.0566268,36.6228329 C28.5696135,36.6228329 30.9996584,35.8615405 32.334463,34.9384715 C32.334463,34.9384715 32.6609698,34.8420401 32.8195801,34.9681447 C33.1250703,35.211027 32.9225653,35.5240997 32.9225653,35.5240997 L32.9225653,35.5240997 Z" id="usta" fill="#3B434F"></path>
                    <path d="M22.630678,38.7269404 L27.3355436,38.7269404 L27.3355436,39.3114148 L22.630678,39.3114148 L22.630678,38.7269404 L22.630678,38.7269404 Z" id="-" fill="#3B434F"></path>
                    <path d="M8.0647575,22.6456358 C8.06272801,22.6457277 7.88425765,22.5324114 7.54724517,22.448049 C7.37880733,22.4059599 7.1694668,22.371337 6.93085968,22.3628005 C6.87126963,22.3606685 6.8099392,22.3601626 6.74718387,22.3615797 C6.68442837,22.362997 6.6202428,22.366333 6.55500036,22.3718722 C6.42453134,22.3829547 6.2897821,22.4028705 6.1541862,22.4338814 C5.61125105,22.5579333 5.0573895,22.859543 4.73210788,23.4820682 C4.56882294,23.7933475 4.4611056,24.1848922 4.43262778,24.674783 C4.42550295,24.7972588 4.42332614,24.9258799 4.42644937,25.0609307 C4.42957795,25.1959814 4.43801207,25.3374616 4.45209841,25.4856559 C4.48025558,25.7820318 4.53110137,26.1052673 4.60685998,26.4574903 C4.60520369,26.4571433 4.53620172,27.5218723 5.01496181,28.7453178 C5.46504439,29.9414773 6.54583553,31.4108527 8.54135147,31.8307411 C8.31184595,28.7924696 8.30471612,25.6972473 8.0647575,22.6456358 L8.0647575,22.6456358 L8.0647575,22.6456358 Z" id="Shape-11-copy" fill="#FFFFFF"></path>
                    <path d="M8.29230175,22.7681199 C8.29230175,22.7681199 4.81596394,21.9117256 4.93830416,24.753163 C4.93830416,24.753163 5.45586904,28.873337 5.68062104,29.2530634 C5.68062104,29.2530634 7.04587519,31.6519708 9.29903262,31.7582849 C11.5011654,31.862191 9.29903262,31.7582849 9.29903262,31.7582849 L9.32637999,32.5315084 C9.32637999,32.5315084 5.36618692,32.127811 4.60130219,28.4993712 L3.99759382,25.2031092 C3.99759382,25.2031092 3.5288399,20.8408304 8.0757785,21.9499729 C12.5054197,23.0305042 8.0757785,21.9499729 8.0757785,21.9499729 L8.29230175,22.7681199" id="Shape-3" fill="#3B434F"></path>
                    <path d="M7.14487998,28.49244 C7.14487998,28.49244 6.95033031,28.6093349 6.78320176,28.6093349 C6.61607321,28.6093349 6.42389504,28.49244 6.42389504,28.49244 L6.0651352,25.6180855 C6.0651352,25.6180855 6.56013224,24.2025422 8.66058929,24.9506159 L8.71024141,25.772496 C8.71024141,25.772496 6.86741017,25.2528778 6.90551561,25.8999215 C6.94219616,26.5227352 7.14487998,28.49244 7.14487998,28.49244 L7.14487998,28.49244 Z" id="Shape-4" fill="#3B434F"></path>
                    <path d="M41.8360953,22.6523455 C41.8381353,22.6524374 42.0173891,22.5392004 42.3558739,22.4548925 C42.5250531,22.4128326 42.7353085,22.3782349 42.974962,22.3697025 C43.0348097,22.3675747 43.0964084,22.3670688 43.1594425,22.368486 C43.2224712,22.3698989 43.2869354,22.3732349 43.3524671,22.37877 C43.483504,22.3898441 43.6188475,22.4097474 43.7550375,22.4407374 C44.3003493,22.5647056 44.8566349,22.8661105 45.1833415,23.4882136 C45.3473414,23.7992796 45.4555321,24.1905567 45.4841308,24.6801173 C45.4912872,24.8025095 45.4934745,24.9310429 45.4903406,25.0660016 C45.4871964,25.2009603 45.4787255,25.3423445 45.464576,25.4904384 C45.436298,25.7866136 45.385226,26.1096316 45.3091362,26.4616122 C45.310803,26.4612652 45.3801046,27.5252752 44.8992465,28.7478889 C44.4471975,29.9432373 43.3616688,31.4116136 41.357414,31.8312177 C41.5879236,28.7950071 41.5950852,25.7018875 41.8360953,22.6523455 L41.8360953,22.6523455 L41.8360953,22.6523455 Z" id="Shape-11-copy_1" fill="#FFFFFF"></path>
                    <path d="M41.6068002,22.7747501 C41.6068002,22.7747501 45.0983653,21.918937 44.9754889,24.7584429 C44.9754889,24.7584429 44.4556578,28.8758203 44.2299171,29.2552875 C44.2299171,29.2552875 42.8586846,31.6525686 40.595663,31.7588116 C38.3838817,31.8626467 40.595663,31.7588116 40.595663,31.7588116 L40.5681947,32.5315084 C40.5681947,32.5315084 44.5457289,32.1280868 45.3139631,28.5021095 L45.9203163,25.2080838 C45.9203163,25.2080838 46.3911262,20.8487649 41.8242697,21.9571549 C37.3752316,23.0369547 41.8242697,21.9571549 41.8242697,21.9571549 L41.6068002,22.7747501" id="Shape-3_1" fill="#3B434F"></path>
                    <path d="M42.7592487,28.4951825 C42.7592487,28.4951825 42.9546501,28.6119978 43.1225095,28.6119978 C43.2903689,28.6119978 43.4833884,28.4951825 43.4833884,28.4951825 L43.8437205,25.6227801 C43.8437205,25.6227801 43.346557,24.2081985 41.2368984,24.9557621 L41.1870306,25.7770862 C41.1870306,25.7770862 43.0379331,25.2578192 42.9996593,25.904424 C42.9628211,26.5268153 42.7592487,28.4951825 42.7592487,28.4951825 L42.7592487,28.4951825 Z" id="Shape-4_1" fill="#3B434F"></path>
                    <path d="M26.3431094,28.2648416 L26.6004039,28.2648416 C27.1323654,28.83922 27.3487888,29.7218845 27.629592,30.485844 C27.7166135,30.7225977 27.6321896,31.1367088 27.5560786,31.3041081 C27.2773417,31.9171937 26.4020947,31.9061907 25.6814885,32.1808196 C25.487959,32.2545801 25.3440027,32.3818927 25.093381,32.4146134 C24.9299907,32.3001851 24.7327122,32.2777108 24.6522951,32.0931505 C24.4537545,31.8757901 24.7096397,31.7400538 24.9095947,31.6547927 C25.2724926,31.500056 26.3927564,31.3475475 26.5268903,31.0703184 C26.6928517,30.9202178 26.5825,30.4689256 26.5268903,30.3105018 C26.3844696,29.9047266 26.3161091,29.5659648 26.1225691,29.2000005 C25.9940087,28.9569175 25.7682943,28.7006159 25.9020289,28.4109581 C26.0128484,28.3731247 26.2523599,28.3301074 26.3431094,28.2648416 L26.3431094,28.2648416 Z" id="new_vector_shape_done" fill="#3B434F"></path>
                    <path d="M16.1614844,23.7643851 L17.1906779,23.7643851 C17.7590834,23.7643851 18.2198661,24.130734 18.2198661,24.5826492 C18.2198661,25.0345642 17.7590834,25.4009132 17.1906779,25.4009132 L16.1614844,25.4009132 C15.5930789,25.4009132 15.1322961,25.0345642 15.1322961,24.5826492 C15.1322961,24.130734 15.5930789,23.7643851 16.1614844,23.7643851 L16.1614844,23.7643851 Z" id="Rounded-Rectangle-8" fill="#3B434F"></path>
                    <path d="M32.9225653,23.7643851 L33.9517588,23.7643851 C34.5201641,23.7643851 34.9809469,24.130734 34.9809469,24.5826492 C34.9809469,25.0345642 34.5201641,25.4009132 33.9517588,25.4009132 L32.9225653,25.4009132 C32.3541598,25.4009132 31.8933771,25.0345642 31.8933771,24.5826492 C31.8933771,24.130734 32.3541598,23.7643851 32.9225653,23.7643851 L32.9225653,23.7643851 Z" id="Rounded-Rectangle-8-copy" fill="#3B434F"></path>
                    <path d="M33.8782452,27.6219199 C34.8932524,27.6219199 35.7160814,28.2761163 35.7160814,29.0831056 C35.7160814,29.8900949 34.8932524,30.5442915 33.8782452,30.5442915 C32.8632329,30.5442915 32.0404092,29.8900949 32.0404092,29.0831056 C32.0404092,28.2761163 32.8632329,27.6219199 33.8782452,27.6219199 L33.8782452,27.6219199 Z" id="Ellipse-3" fill="#EDF1F1"></path>
                    <path d="M16.0879762,27.6219199 C17.1029834,27.6219199 17.9258124,28.2761163 17.9258124,29.0831056 C17.9258124,29.8900949 17.1029834,30.5442915 16.0879762,30.5442915 C15.0729639,30.5442915 14.2501402,29.8900949 14.2501402,29.0831056 C14.2501402,28.2761163 15.0729639,27.6219199 16.0879762,27.6219199 L16.0879762,27.6219199 Z" id="Ellipse-3-copy" fill="#EDF1F1"></path>
                    <path d="M29.6351351,21.5068493 C29.6351351,21.5068493 34.112667,19.4621507 37.0645569,22.0447989 L38.5854034,22.0103015 C38.5854034,22.0103015 36.6886452,18.7182449 28.9022986,20.7953926 L29.6351351,21.6438356" id="R-copy" fill="#3B434F"></path>
                    <path d="M20.2904518,21.5201851 C20.2904518,21.5201851 15.8278581,19.4935796 12.885822,22.0533732 L11.3700494,22.019181 C11.3700494,22.019181 13.2604771,18.7562582 21.0208433,20.8150242 L20.2904518,21.655959" id="R-copy-3" fill="#3B434F"></path>
                    <path d="M9.13175676,28.7671233 C9.13175676,28.7671233 1.71324024,26.4481177 0.719907041,22.9438886 C-0.273420993,19.4396638 0.576555517,17.2339495 1.80840125,16.5122171 C1.80840125,16.5122171 1.27873213,11.1174659 3.82988687,9.37890452 C3.82988687,9.37890452 4.98074219,5.46173096 10.8273455,4.23356151 C10.8273455,4.23356151 19.9058116,-3.37968795 36.3291806,1.8947737 C36.3291806,1.8947737 40.37415,5.00464877 42.8117508,6.13043795 C42.8810524,6.16244795 42.9490607,6.19285274 43.0156387,6.22153507 C45.4238468,7.25907 47.6947817,9.41940521 48.1471043,13.5887251 C48.1471043,13.5887251 48.1017479,17.3198292 50.4795905,19.7865233 C50.4795905,19.7865233 53.1117356,26.2827584 40.6831525,28.5569867 L40.2166542,19.5526415 C40.2166542,19.5526415 34.4668365,17.9818767 33.8411968,13.8226067 C33.8411968,13.8226067 25.4410094,15.927517 20.1572851,13.7056659 C20.1572851,13.7056659 16.8764172,12.9190649 16.7363047,14.0564842 C16.7363047,14.0564842 15.6372837,18.7620816 9.73885128,20.0204008 L9.13175676,28.7671233 L9.13175676,28.7671233 Z" id="Shape-1" fill="#3B434F"></path>
                </g>
            </g>
        </g>
    </g>
</svg>