<?xml version="1.0" encoding="UTF-8" standalone="no"?>
<svg width="170px" height="227px" viewBox="0 0 170 227" version="1.1" xmlns="http://www.w3.org/2000/svg" xmlns:xlink="http://www.w3.org/1999/xlink">
    <!-- Generator: Sketch 47 (45396) - http://www.bohemiancoding.com/sketch -->
    <title>users-4</title>
    <desc>Created with Sketch.</desc>
    <defs></defs>
    <g id="WHIRLWORK-WEB" stroke="none" stroke-width="1" fill="none" fill-rule="evenodd">
        <g id="Desktop-HD-Copy-7" transform="translate(-318.000000, -641.000000)">
            <g id="users-4" transform="translate(318.000000, 641.000000)">
                <g id="svg6013">
                    <path d="M2.2972973,224.707071 C2.2972973,224.707071 -4.58825003,171.707694 48.4882879,166.917615 L61.2306356,166.917615 C61.2306356,166.917615 65.4011824,164.227247 68.3369354,164.227247 L68.3369354,156.645284 C68.3369354,156.645284 84.2418879,164.560676 100.682885,156.889863 L100.682885,163.738089 C100.682885,163.738089 101.381651,162.427289 108.524319,167.162194 L127.637832,167.162194 C127.637832,167.162194 168.277027,172.165661 168.277027,224.707071 L2.2972973,224.707071 L2.2972973,224.707071 Z" id="body-bg" fill="#FFFFFF"></path>
                    <path d="M166.704488,226.763066 L3.29980568,226.763066 L0.13075125,226.763066 L0.921796858,213.275015 C2.46632784,186.939444 23.2554728,166.841185 47.0457822,166.841185 L63.4046306,166.841185 C62.3433718,167.717268 61.5656465,168.625976 61.0063252,169.531553 L48.4900407,169.531553 C25.5610782,169.531553 5.52461176,188.877234 4.03599182,214.22667 L3.48652081,223.583541 L166.272728,223.583541 L165.968302,214.22667 C164.479682,188.877234 144.443216,169.531553 121.514236,169.531553 L108.987295,169.531553 C108.508247,168.632641 107.827061,167.724002 106.876029,166.841185 L122.813179,166.841185 C146.603488,166.841185 167.392633,186.939444 168.937163,213.275015 L169.728209,226.763066 L166.704488,226.763066 L166.704488,226.763066 Z M102.028958,169.531553 L101.172975,169.531553 L101.172975,166.841185 L102.12406,166.841185 C102.067202,167.540406 102.030658,168.42172 102.028958,169.531553 L102.028958,169.531553 Z M67.5631011,166.841185 L68.5819801,166.841185 L68.5819801,169.531553 L67.7013893,169.531553 C67.6882263,168.389024 67.6357681,167.512277 67.5631011,166.841185 L67.5631011,166.841185 Z" id="Rounded-Rectangle-13-copy-4" fill="#3B434F"></path>
                    <path d="M92.5963891,204.261791 C93.5437405,204.261791 94.3117201,205.028293 94.3117201,205.973842 C94.3117201,206.919375 93.5437405,207.685895 92.5963891,207.685895 C91.6490555,207.685895 90.8810753,206.919375 90.8810753,205.973842 C90.8810753,205.028293 91.6490555,204.261791 92.5963891,204.261791 L92.5963891,204.261791 Z" id="Ellipse-5" fill="#3B434F"></path>
                    <path d="M92.5963891,215.512419 C93.5437405,215.512419 94.3117201,216.278939 94.3117201,217.224471 C94.3117201,218.170022 93.5437405,218.936524 92.5963891,218.936524 C91.6490555,218.936524 90.8810753,218.170022 90.8810753,217.224471 C90.8810753,216.278939 91.6490555,215.512419 92.5963891,215.512419 L92.5963891,215.512419 Z" id="Ellipse-5-copy" fill="#3B434F"></path>
                    <path d="M112.445037,181.271357 L99.9477508,199.85937 C96.5480765,189.342111 86.7153138,193.255723 86.7153138,193.255723 L86.7153138,224.318134 C86.7153138,225.128126 85.9473336,225.78475 85,225.78475 C84.0526664,225.78475 83.2846862,225.128126 83.2846862,224.318134 L83.2846862,193.254988 C83.2051314,193.223499 73.4506089,189.385022 70.068479,199.85937 L57.5847593,181.271357 C57.5847593,181.271357 52.7557939,169.017537 67.3759128,163.661659 L67.3759128,158.036327 L70.1404798,158.036327 L70.1404798,175.739879 C70.4954013,178.787344 72.5976408,187.470638 85,190.320776 C97.4158374,187.470638 99.5203731,178.787344 99.87568,175.739879 L99.87568,158.036327 L102.643244,158.036327 L102.643244,163.661659 C117.279242,169.017537 112.445037,181.271357 112.445037,181.271357 L112.445037,181.271357 Z M69.9235661,182.916828 C69.2572074,182.163639 68.2974294,180.293024 68.2974294,180.293024 C68.2974294,180.293024 67.3759128,177.231983 67.3759128,175.890604 L67.3759128,169.686932 C67.1674997,166.889013 66.6415851,166.841185 66.6415851,166.841185 C55.7329981,172.203902 60.5221072,180.537603 60.5221072,180.537603 L69.5789324,194.723196 C73.1156859,188.741816 76.9223024,189.831618 76.9223024,189.831618 C73.56138,188.12191 71.357168,185.468454 69.9235661,182.916828 L69.9235661,182.916828 Z M103.378378,166.841185 C103.378378,166.841185 102.851885,166.889013 102.643244,169.686932 L102.643244,175.890604 C102.643244,177.231983 101.720728,180.293024 101.720728,180.293024 C101.720728,180.293024 100.759899,182.163639 100.092822,182.916828 C98.6576599,185.468454 96.4510467,188.12191 93.086479,189.831618 C93.086479,189.831618 96.8972312,188.741816 100.437841,194.723196 L109.504498,180.537603 C109.504498,180.537603 114.298813,172.203902 103.378378,166.841185 L103.378378,166.841185 Z" id="Shape-2-copy-9" fill="#3B434F"></path>
                    <path d="M85.123285,3.70688936 C115.607203,3.70688936 139.668181,32.139916 138.885829,66.3028869 L138.054314,102.612085 C137.317269,134.796994 113.627442,160.237537 85.123285,160.237537 C56.6191277,160.237537 32.9293009,134.796994 32.1922562,102.612085 L31.3607408,66.3028869 C30.578406,32.139916 54.6393669,3.70688936 85.123285,3.70688936 L85.123285,3.70688936 Z" id="2-copy-5" fill="#FFFFFF"></path>
                    <path d="M141.33512,65.1771692 L140.463836,102.961416 C139.691545,136.453836 114.868476,162.927905 85.0008064,162.927905 C55.1331193,162.927905 30.3100679,136.453836 29.5377584,102.961416 L28.6664573,65.1771692 C27.8467024,29.6263214 53.0586604,0.0382059343 85.0008064,0.0382059343 C116.942952,0.0382059343 142.154893,29.6263214 141.33512,65.1771692 L141.33512,65.1771692 Z M84.8784155,3.95146868 C54.8112363,3.95146868 31.0792047,32.1623603 31.8508301,66.0584302 L32.6709882,102.083968 C33.3979548,134.017424 56.7639356,159.259222 84.8784155,159.259222 C112.992895,159.259222 136.358858,134.017424 137.085825,102.083968 L137.905965,66.0584302 C138.677626,32.1623603 114.945594,3.95146868 84.8784155,3.95146868 L84.8784155,3.95146868 Z" id="2-line" fill="#3B434F"></path>
                    <path d="M139.805855,71.4553122 L137.355408,111.566303 C137.355408,111.566303 126.471832,157.866814 84.4256757,163.349065 L84.4256757,163.417063 C84.3430361,163.406986 84.2630253,163.393464 84.180631,163.383073 C84.0982367,163.393464 84.0182259,163.406986 83.9355858,163.417063 L83.9355858,163.349065 C41.8894473,157.866814 31.0058543,111.566303 31.0058543,111.566303 L28.555406,71.4553122 C39.4662885,119.794097 48.6490981,122.81695 48.6490981,122.81695 C46.7908345,108.158747 61.8815357,109.609672 61.8815357,109.609672 C71.0788396,111.16031 78.4005282,111.909633 84.180631,112.189777 C89.960751,111.909633 97.2824219,111.16031 106.479726,109.609672 C106.479726,109.609672 121.57041,108.158747 119.712163,122.81695 C119.712163,122.81695 128.894973,119.794097 139.805855,71.4553122 L139.805855,71.4553122 Z M112.557857,127.788614 C111.844527,119.166267 106.635296,119.897397 106.635296,119.897397 C97.3745263,122.617172 90.1050156,124.128099 84.4256757,124.896001 L84.4256757,124.839637 C78.7861043,124.077998 71.5675097,122.579473 62.3716251,119.881985 C62.3716251,119.881985 57.1988679,119.156838 56.4905319,127.708527 C56.4905319,127.708527 54.4133915,136.276433 61.3914458,139.937472 L70.2130589,149.231488 C70.2130589,149.231488 76.2415541,151.138437 76.094152,143.850734 C76.094152,143.850734 75.4805674,138.415541 79.0346897,137.491683 L84.4256757,137.491683 L84.4256757,137.652625 L89.8546952,137.652625 C93.4338809,138.584127 92.8159849,144.064244 92.8159849,144.064244 C92.6675313,151.412177 98.7385293,149.489449 98.7385293,149.489449 L107.622381,140.118636 C114.649651,136.427334 112.557857,127.788614 112.557857,127.788614 L112.557857,127.788614 Z" id="1-copy-4" fill="#3B434F" opacity="0.058824"></path>
                    <path d="M111.464857,124.578247 C107.010846,128.438293 96.9505486,132.11093 85.2450625,132.11093 C73.5395585,132.11093 63.4792606,128.438293 59.0252325,124.578247 C59.0252325,124.578247 58.5695308,123.326715 59.2381328,122.659384 C59.9191086,121.979703 60.9855909,122.127629 60.9855909,122.127629 C65.4349395,125.9903 73.5350892,129.176001 85.2450625,129.176001 C96.955018,129.176001 105.055168,125.9903 109.504516,122.127629 C109.504516,122.127629 110.592872,121.724103 111.121573,122.251799 C112.139874,123.268164 111.464857,124.578247 111.464857,124.578247 L111.464857,124.578247 Z" id="usta" fill="#3B434F"></path>
                    <path d="M77.1585662,137.980841 L92.8414516,137.980841 L92.8414516,140.42663 L77.1585662,140.42663 L77.1585662,137.980841 L77.1585662,137.980841 Z" id="-" fill="#3B434F"></path>
                    <path d="M28.605498,70.6870783 C28.598733,70.6874629 28.0038318,70.21328 26.8804569,69.8602577 C26.3189974,69.6841315 25.6211956,69.5392488 24.8258386,69.5035272 C24.6272051,69.4946055 24.4227703,69.4924885 24.2135859,69.4984186 C24.0044009,69.5043493 23.790449,69.5183092 23.5729742,69.5414884 C23.1380774,69.587864 22.6889133,69.671204 22.236927,69.8009718 C20.4271431,70.3200789 18.580938,71.5821938 17.4966659,74.1872102 C16.9523828,75.4897884 16.593325,77.1282446 16.4983989,79.1782397 C16.4746495,79.6907513 16.4673934,80.2289786 16.4778042,80.7941117 C16.4882328,81.3592443 16.5163466,81.951282 16.563301,82.5714151 C16.6571582,83.8116284 16.8266442,85.1642383 17.0791729,86.6381493 C17.0736519,86.6366973 16.8436454,91.0921582 18.4395123,96.2117832 C19.9397876,101.217227 23.5424247,107.36597 30.1941445,109.123033 C29.4291261,96.4090943 29.40536,83.4568395 28.605498,70.6870783 L28.605498,70.6870783 L28.605498,70.6870783 Z" id="Shape-11-copy" fill="#FFFFFF"></path>
                    <path d="M29.3639788,71.1996248 C29.3639788,71.1996248 17.7761861,67.6159609 18.1839868,79.5062284 C18.1839868,79.5062284 19.9092031,96.7474917 20.6583765,98.3364934 C20.6583765,98.3364934 25.2092236,108.374952 32.7197484,108.819833 C40.060191,109.254638 32.7197484,108.819833 32.7197484,108.819833 L32.8109063,112.055461 C32.8109063,112.055461 19.6102627,110.36615 17.0606469,95.1825961 L15.0482857,81.3890713 C15.0482857,81.3890713 13.4857726,63.1346972 28.6422346,67.7760102 C43.4077052,72.2975974 28.6422346,67.7760102 28.6422346,67.7760102 L29.3639788,71.1996248" id="Shape-3" fill="#3B434F"></path>
                    <path d="M25.5392396,95.1535917 C25.5392396,95.1535917 24.8907407,95.6427498 24.3336455,95.6427498 C23.7765503,95.6427498 23.1359565,95.1535917 23.1359565,95.1535917 L21.9400903,83.1255794 C21.9400903,83.1255794 23.5900804,77.2021027 30.591604,80.3324889 L30.757111,83.7717252 C30.757111,83.7717252 24.6143402,81.5973329 24.7413583,84.3049493 C24.8636268,86.911173 25.5392396,95.1535917 25.5392396,95.1535917 L25.5392396,95.1535917 Z" id="Shape-4" fill="#3B434F"></path>
                    <path d="M141.750948,70.7151558 C141.757748,70.7155404 142.355261,70.2416894 143.483544,69.8888947 C144.047474,69.7128912 144.748326,69.5681139 145.547171,69.532409 C145.746663,69.523505 145.951992,69.521388 146.162106,69.5273187 C146.372201,69.533231 146.587082,69.5471909 146.805521,69.5703529 C147.242311,69.6166936 147.693456,69.6999808 148.147422,69.8296615 C149.965128,70.3484184 151.819414,71.6096762 152.908435,74.212926 C153.455102,75.5146116 153.815738,77.1519483 153.911067,79.2005614 C153.934921,79.7127233 153.942212,80.2505837 153.931766,80.8153316 C153.921285,81.380079 153.893049,81.9717149 153.845884,82.5914278 C153.751624,83.8308013 153.581384,85.1825015 153.327751,86.6553979 C153.333307,86.6539459 153.564313,91.1063978 151.961452,96.2225422 C150.454622,101.224592 146.836193,107.369154 140.155344,109.125027 C140.923709,96.4197129 140.947581,83.4762572 141.750948,70.7151558 L141.750948,70.7151558 L141.750948,70.7151558 Z" id="Shape-11-copy_1" fill="#F7FBFB"></path>
                    <path d="M140.412307,71.2273698 C140.412307,71.2273698 152.050857,67.6461376 151.641269,79.5283225 C151.641269,79.5283225 149.908499,96.7578833 149.15603,98.3458004 C149.15603,98.3458004 144.585255,108.377453 137.04185,108.822037 C129.669245,109.256545 137.04185,108.822037 137.04185,108.822037 L136.950289,112.055461 C136.950289,112.055461 150.208736,110.367305 152.769517,95.1940545 L154.790694,81.4098882 C154.790694,81.4098882 156.36006,63.1678999 141.137205,67.8060642 C126.307078,72.3245898 141.137205,67.8060642 141.137205,67.8060642 L140.412307,71.2273698" id="Shape-3_1" fill="#3B434F"></path>
                    <path d="M144.253802,95.1650678 C144.253802,95.1650678 144.90514,95.6538928 145.464671,95.6538928 C146.024203,95.6538928 146.667601,95.1650678 146.667601,95.1650678 L147.868708,83.1452247 C147.868708,83.1452247 146.211496,77.225772 139.179301,80.3540235 L139.013075,83.790933 C139.013075,83.790933 145.18275,81.6180105 145.055171,84.3237903 C144.932377,86.9282467 144.253802,95.1650678 144.253802,95.1650678 L144.253802,95.1650678 Z" id="Shape-4_1" fill="#3B434F"></path>
                    <path d="M140.906182,70.7078608 C140.912966,70.7082632 141.508515,70.2318757 142.633151,69.8772266 C143.195242,69.7002783 143.893815,69.5547312 144.690066,69.5188337 C144.88891,69.5098597 145.093572,69.5077428 145.303002,69.5137084 C145.512415,69.5196563 145.726595,69.5336861 145.944315,69.5569703 C146.379703,69.6035735 146.829358,69.6872803 147.28187,69.8176608 C149.093669,70.3391641 150.941943,71.6071225 152.027406,74.2242095 C152.57232,75.5328227 152.931764,77.1788535 153.026795,79.2383477 C153.05058,79.753221 153.057836,80.2939327 153.047407,80.8616895 C153.036978,81.4294463 153.00883,82.024231 152.961823,82.6472153 C152.867861,83.8931839 152.698199,85.2520392 152.44539,86.7327728 C152.450894,86.7313208 152.681163,91.2074237 151.083526,96.3507353 C149.581568,101.379359 145.974917,107.556563 139.315766,109.321779 C140.081625,96.5489561 140.105427,83.5367504 140.906182,70.7078608 L140.906182,70.7078608 L140.906182,70.7078608 Z" id="Shape-11" fill="#FFFFFF"></path>
                    <path d="M140.665046,71.2273526 C140.665046,71.2273526 152.303579,67.6461376 151.894009,79.5283402 C151.894009,79.5283402 150.161221,96.7578655 149.408787,98.3458176 C149.408787,98.3458176 144.838012,108.377436 137.294571,108.82202 C129.921984,109.256562 137.294571,108.82202 137.294571,108.82202 L137.203028,112.055461 C137.203028,112.055461 150.461493,110.367305 153.022273,95.1940373 L155.043451,81.4098882 C155.043451,81.4098882 156.612799,63.1679171 141.389945,67.8060642 C126.559817,72.3245726 141.389945,67.8060642 141.389945,67.8060642 L140.665046,71.2273526" id="Shape-3_2" fill="#3B434F"></path>
                    <path d="M144.506541,95.1650678 L146.920341,95.1650678 L148.12143,83.1452075 C148.12143,83.1452075 146.464236,77.2257543 139.43204,80.3540235 L139.265814,83.790933 C139.265814,83.790933 145.435489,81.6180105 145.30791,84.3238075 C145.185116,86.9282467 144.506541,95.1650678 144.506541,95.1650678 L144.506541,95.1650678 Z" id="Shape-4_2" fill="#3B434F"></path>
                    <path d="M89.5333377,94.2011846 L90.390986,94.2011846 C92.1641911,96.6047259 92.8856022,100.29832 93.821613,103.495182 C94.1116847,104.485901 93.8302715,106.218788 93.5765683,106.919287 C92.6474454,109.484802 89.7299554,109.438759 87.3279346,110.58797 C86.6828363,110.896628 86.202982,111.42938 85.3675762,111.566303 C84.8229421,111.087466 84.1653471,110.993421 83.8972898,110.221111 C83.2354879,109.311545 84.0884387,108.743543 84.7549553,108.38676 C85.964615,107.73925 89.6988276,107.101063 90.1459408,105.940971 C90.6991455,105.312861 90.3313062,103.424385 90.1459408,102.761446 C89.6712049,101.06344 89.4433365,99.6458592 88.7982032,98.1144467 C88.3696688,97.0972425 87.6172873,96.0247237 88.0630692,94.8126228 C88.4324677,94.6543052 89.2308394,94.4742954 89.5333377,94.2011846 L89.5333377,94.2011846 Z" id="new_vector_shape_done" fill="#3B434F"></path>
                    <path d="M55.5945877,75.3685922 L59.0252325,75.3685922 C60.9199175,75.3685922 62.4558601,76.9016143 62.4558601,78.7926969 C62.4558601,80.6837788 60.9199175,82.216801 59.0252325,82.216801 L55.5945877,82.216801 C53.6999027,82.216801 52.1639601,80.6837788 52.1639601,78.7926969 C52.1639601,76.9016143 53.6999027,75.3685922 55.5945877,75.3685922 L55.5945877,75.3685922 Z" id="Rounded-Rectangle-8" fill="#3B434F"></path>
                    <path d="M111.464857,75.3685922 L114.895502,75.3685922 C116.790187,75.3685922 118.326129,76.9016143 118.326129,78.7926969 C118.326129,80.6837788 116.790187,82.216801 114.895502,82.216801 L111.464857,82.216801 C109.570172,82.216801 108.03423,80.6837788 108.03423,78.7926969 C108.03423,76.9016143 109.570172,75.3685922 111.464857,75.3685922 L111.464857,75.3685922 Z" id="Rounded-Rectangle-8-copy" fill="#3B434F"></path>
                    <path d="M41.872078,66.5637345 L74.7081006,66.5637345 C76.6027851,66.5637345 78.1387454,68.0967567 78.1387454,69.9878392 L78.1387454,91.0216414 C78.1387454,92.9127234 76.6027851,94.4457633 74.7081006,94.4457633 L41.872078,94.4457633 C39.9773935,94.4457633 38.4414332,92.9127234 38.4414332,91.0216414 L38.4414332,69.9878392 C38.4414332,68.0967567 39.9773935,66.5637345 41.872078,66.5637345 L41.872078,66.5637345 Z" id="Rounded-Rectangle-10" fill="#3B434F" opacity="0.14902"></path>
                    <path d="M94.80181,66.5637345 L127.637832,66.5637345 C129.532517,66.5637345 131.068477,68.0967567 131.068477,69.9878392 L131.068477,91.0216414 C131.068477,92.9127234 129.532517,94.4457633 127.637832,94.4457633 L94.80181,94.4457633 C92.907125,94.4457633 91.3711652,92.9127234 91.3711652,91.0216414 L91.3711652,69.9878392 C91.3711652,68.0967567 92.907125,66.5637345 94.80181,66.5637345 L94.80181,66.5637345 Z" id="Rounded-Rectangle-10-copy" fill="#3B434F" opacity="0.14902"></path>
                    <path d="M134.009015,69.0095237 L134.009015,87.1083787 C134.009015,91.5312839 129.686404,98.4328486 122.642851,98.8280831 C121.608145,98.7788385 100.682885,98.848183 100.682885,98.848183 C91.2764144,98.848183 89.4108068,87.5975367 89.4108068,87.5975367 L89.4108068,75.3685922 L80.5891932,75.3685922 L80.5891932,87.5975367 C80.5891932,87.5975367 78.7235856,98.848183 69.3171146,98.848183 C69.3171146,98.848183 48.3918548,98.7788385 47.3571487,98.8280831 C40.3135961,98.4328486 35.9909849,91.5312839 35.9909849,87.1083787 L35.9909849,69.0095237 L28.1495511,69.0095237 L28.1495511,64.1179459 L73.7279214,64.1179459 C73.7279214,64.1179459 80.5891932,65.2242797 80.5891932,69.9878392 L89.4108068,69.9878392 C89.4108068,65.2242797 96.2720786,64.1179459 96.2720786,64.1179459 L141.850449,64.1179459 L141.850449,69.0095237 L134.009015,69.0095237 L134.009015,69.0095237 Z M75.6882799,71.4553122 C75.6882799,69.7117367 73.7279214,69.4986811 73.7279214,69.4986811 L40.8918988,69.4986811 L40.8918988,86.6192212 C40.8918988,91.9536335 48.2432432,93.9566053 48.2432432,93.9566053 L68.3369354,93.9566053 C75.2503679,93.9566053 75.6882799,86.6192212 75.6882799,86.6192212 L75.6882799,71.4553122 L75.6882799,71.4553122 Z M129.108101,69.4986811 L96.2720786,69.4986811 C96.2720786,69.4986811 94.3117201,69.7117367 94.3117201,71.4553122 L94.3117201,86.6192212 C94.3117201,86.6192212 94.7496321,93.9566053 101.663065,93.9566053 L121.756757,93.9566053 C121.756757,93.9566053 129.108101,91.9536335 129.108101,86.6192212 L129.108101,69.4986811 L129.108101,69.4986811 Z M122.246847,98.848183 C122.380455,98.8454016 122.511119,98.835483 122.642851,98.8280831 C122.753622,98.8333661 122.642343,98.8399611 122.246847,98.848183 L122.246847,98.848183 Z M47.3571487,98.8280831 C47.4888815,98.835483 47.6195454,98.8454016 47.7531533,98.848183 C47.357657,98.8399611 47.2463782,98.8333661 47.3571487,98.8280831 L47.3571487,98.8280831 Z" id="Shape-1-copy-5" fill="#3B434F"></path>
                </g>
            </g>
        </g>
    </g>
</svg>